<?xml version="1.0" encoding="UTF-8"?>
<svg version="1.1" xmlns="http://www.w3.org/2000/svg" width="16" height="16">
<path d="M0 0 C5.28 0 10.56 0 16 0 C16 5.28 16 10.56 16 16 C10.72 16 5.44 16 0 16 C0 10.72 0 5.44 0 0 Z " fill="#FDFDFD" transform="translate(0,0)"/>
<path d="M0 0 C0.66 0 1.32 0 2 0 C2 2.97 2 5.94 2 9 C0.02 9 -1.96 9 -4 9 C-3.4739075 5.21213403 -2.61896089 2.82847776 0 0 Z " fill="#F6F6F6" transform="translate(14,7)"/>
<path d="M0 0 C0.66 0 1.32 0 2 0 C2 1.32 2 2.64 2 4 C1.01 4.33 0.02 4.66 -1 5 C-2.68538601 6.99665314 -2.68538601 6.99665314 -4 9 C-3.4739075 5.21213403 -2.61896089 2.82847776 0 0 Z " fill="#848484" transform="translate(14,7)"/>
</svg>
