<?xml version="1.0" encoding="UTF-8"?>
<svg version="1.1" xmlns="http://www.w3.org/2000/svg" width="500" height="500">
<path d="M0 0 C165 0 330 0 500 0 C500 165 500 330 500 500 C335 500 170 500 0 500 C0 335 0 170 0 0 Z " fill="#FEFEFE" transform="translate(0,0)"/>
<path d="M0 0 C0.67498535 0.24121582 1.3499707 0.48243164 2.04541016 0.73095703 C39.58078785 14.23923666 69.03213726 43.95516035 86.046875 79.55859375 C99.6582663 109.49142881 102.55700837 142.90631862 96 175 C95.75636719 176.24007812 95.51273437 177.48015625 95.26171875 178.7578125 C90.00478587 201.42989269 78.1447228 222.48796582 63 240 C62.30519531 240.81597656 61.61039062 241.63195312 60.89453125 242.47265625 C47.18996013 258.16620937 30.83566282 270.52319554 11.87597656 279.14599609 C10.09252229 279.95788093 8.32311568 280.80041757 6.5546875 281.64453125 C-27.27390943 297.14603449 -68.22812063 297.14344139 -102.91015625 284.62109375 C-137.35496874 271.32851101 -165.76149114 248.3460734 -184 216 C-184.58265625 214.97132813 -185.1653125 213.94265625 -185.765625 212.8828125 C-193.77961885 197.82949973 -199.61670013 180.89976272 -202 164 C-202.13704346 163.04903442 -202.13704346 163.04903442 -202.27685547 162.07885742 C-204.56274689 144.37236689 -204.23762399 125.37972897 -200 108 C-199.83902832 107.31647461 -199.67805664 106.63294922 -199.51220703 105.92871094 C-194.07318836 83.53521042 -183.08070794 62.40081686 -168 45 C-167.31550781 44.19433594 -166.63101563 43.38867188 -165.92578125 42.55859375 C-141.44600286 14.47497007 -105.78228169 -5.97098148 -68.20166016 -8.87109375 C-44.67389286 -10.24863435 -22.16765175 -8.16702959 0 0 Z " fill="#FDFDFD" transform="translate(311,50)"/>
<path d="M0 0 C0.67498535 0.24121582 1.3499707 0.48243164 2.04541016 0.73095703 C39.58078785 14.23923666 69.03213726 43.95516035 86.046875 79.55859375 C99.6582663 109.49142881 102.55700837 142.90631862 96 175 C95.75636719 176.24007812 95.51273437 177.48015625 95.26171875 178.7578125 C90.00478587 201.42989269 78.1447228 222.48796582 63 240 C62.30519531 240.81597656 61.61039062 241.63195312 60.89453125 242.47265625 C47.18996013 258.16620937 30.83566282 270.52319554 11.87597656 279.14599609 C10.09252229 279.95788093 8.32311568 280.80041757 6.5546875 281.64453125 C-27.27390943 297.14603449 -68.22812063 297.14344139 -102.91015625 284.62109375 C-137.35496874 271.32851101 -165.76149114 248.3460734 -184 216 C-184.58265625 214.97132813 -185.1653125 213.94265625 -185.765625 212.8828125 C-193.77961885 197.82949973 -199.61670013 180.89976272 -202 164 C-202.13704346 163.04903442 -202.13704346 163.04903442 -202.27685547 162.07885742 C-204.56274689 144.37236689 -204.23762399 125.37972897 -200 108 C-199.83902832 107.31647461 -199.67805664 106.63294922 -199.51220703 105.92871094 C-194.07318836 83.53521042 -183.08070794 62.40081686 -168 45 C-167.31550781 44.19433594 -166.63101563 43.38867188 -165.92578125 42.55859375 C-141.44600286 14.47497007 -105.78228169 -5.97098148 -68.20166016 -8.87109375 C-44.67389286 -10.24863435 -22.16765175 -8.16702959 0 0 Z M-117 8 C-117.64984863 8.3187207 -118.29969727 8.63744141 -118.96923828 8.96582031 C-151.58924556 25.16679447 -179.3722347 54.29254986 -191.4375 89 C-192.32440452 91.65801048 -193.16644183 94.32427826 -194 97 C-194.45632812 98.38251953 -194.45632812 98.38251953 -194.921875 99.79296875 C-201.82562286 121.38479242 -202.77440455 143.73822537 -199 166 C-198.82855469 167.23492187 -198.65710938 168.46984375 -198.48046875 169.7421875 C-195.01190038 191.98578078 -184.8368182 213.62460932 -171.18310547 231.41015625 C-170.05312531 232.92861081 -169.01008585 234.51062043 -167.97265625 236.09375 C-164.57141325 241.15863739 -164.57141325 241.15863739 -159.26953125 243.75 C-154.64269198 243.94980952 -151.60810963 243.29872052 -147.4375 241.25 C-144.1539478 238.21902874 -143.11342976 236.37329955 -142.74273109 231.88523293 C-142.73770356 230.03305688 -142.73770356 230.03305688 -142.73257446 228.14346313 C-142.72804335 227.45415848 -142.72351224 226.76485383 -142.71884382 226.05466115 C-142.7061862 223.74551971 -142.70782104 221.4366137 -142.70947266 219.12744141 C-142.70348826 217.47157996 -142.69668291 215.81572131 -142.68911743 214.15986633 C-142.67144139 209.66189499 -142.66676138 205.16399974 -142.66548586 200.66599703 C-142.66358684 196.91102271 -142.65622928 193.15606611 -142.64914167 189.40109861 C-142.63285408 180.541804 -142.62797306 171.68255005 -142.62939453 162.82324219 C-142.63059614 153.68459651 -142.60949128 144.54618693 -142.5779072 135.407601 C-142.55175549 127.56119571 -142.54102677 119.71486759 -142.54230535 111.86841905 C-142.5428153 107.18227171 -142.53711384 102.49633418 -142.51594925 97.81023026 C-142.49658538 93.40246038 -142.49642959 88.99510086 -142.51098251 84.58731651 C-142.51307401 82.97081974 -142.50834939 81.3542974 -142.4962616 79.73784447 C-142.48081023 77.52824924 -142.49011462 75.32006918 -142.50552368 73.11050415 C-142.50443415 71.87496607 -142.50334461 70.63942799 -142.50222206 69.36644936 C-143.09769283 65.33930788 -144.49358421 63.16844333 -147 60 C-150.04665934 57.83266104 -152.56810223 57.77810795 -156.25 57.875 C-157.14203125 57.89304688 -158.0340625 57.91109375 -158.953125 57.9296875 C-159.62859375 57.95289063 -160.3040625 57.97609375 -161 58 C-161 57.01 -161 56.02 -161 55 C-148.14197109 55.0615558 -135.2841394 55.13890554 -122.42632484 55.23571491 C-116.4541525 55.28019953 -110.48204496 55.31950236 -104.50976562 55.34643555 C-98.73243133 55.37268904 -92.95534938 55.41324261 -87.17817307 55.46318626 C-84.98812403 55.47970736 -82.79803151 55.49131249 -80.60792923 55.49761391 C-58.13421502 55.56873711 -34.28915898 56.40580279 -17.109375 72.8046875 C-8.1973224 82.1286417 -6.64597097 93.16826545 -6.7890625 105.66015625 C-7.49459301 116.83105605 -12.01799934 126.47118927 -20.0625 134.25 C-34.62382435 146.36404295 -52.99319741 148.05921656 -71.12890625 148.31640625 C-72.35915024 148.33718735 -73.58939423 148.35796844 -74.85691833 148.37937927 C-78.75872605 148.4443833 -82.6605969 148.50352978 -86.5625 148.5625 C-89.21941588 148.60525553 -91.87630751 148.64934774 -94.53320312 148.69335938 C-101.02207009 148.80001386 -107.51099884 148.90186847 -114 149 C-114.04634426 159.996252 -114.08187988 170.99248076 -114.10362434 181.98881054 C-114.11406068 187.09487038 -114.12821724 192.20086339 -114.15087891 197.30688477 C-114.1726125 202.23464426 -114.18456976 207.16233948 -114.18975449 212.0901432 C-114.1934493 213.97000452 -114.20066432 215.84986233 -114.21146011 217.72969627 C-114.22598182 220.3630877 -114.22797765 222.99621364 -114.22705078 225.62963867 C-114.23783661 226.79489326 -114.23783661 226.79489326 -114.24884033 227.98368835 C-114.22806619 233.4397555 -113.58561377 237.10749325 -110.0625 241.3125 C-105.4860761 243.83420296 -101.11567349 243.32252933 -96 243 C-96 244.32 -96 245.64 -96 247 C-116.13 247 -136.26 247 -157 247 C-137.02327214 270.97207343 -102.71391631 286.55651742 -72 290 C-65.83990815 290.38829195 -59.67001565 290.39060769 -53.5 290.375 C-52.655513 290.37412384 -51.811026 290.37324768 -50.94094849 290.37234497 C-38.20759881 290.32874019 -26.26420769 289.6787307 -14 286 C-13.1740332 285.76925781 -12.34806641 285.53851563 -11.49707031 285.30078125 C6.65734066 280.17387251 24.3796972 272.06999434 39 260 C39.53641113 259.56606934 40.07282227 259.13213867 40.62548828 258.68505859 C71.88798066 233.30768035 92.07864625 197.90369814 96.75683594 157.64501953 C98.1452005 142.54307007 97.01799201 127.81677971 94 113 C93.79117188 111.91428711 93.79117188 111.91428711 93.578125 110.80664062 C86.38909061 73.89627425 63.09351769 39.64615684 32.03515625 18.55078125 C10.57572755 4.61714965 -15.880658 -6.12642109 -41.78515625 -6.16796875 C-42.52269638 -6.17129715 -43.26023651 -6.17462555 -44.02012634 -6.17805481 C-45.5774575 -6.18309731 -47.13479936 -6.18546397 -48.69213867 -6.18530273 C-51.03127751 -6.18747106 -53.36992989 -6.20560471 -55.70898438 -6.22460938 C-77.29588659 -6.30790224 -97.65098718 -1.54453205 -117 8 Z " fill="#010101" transform="translate(311,50)"/>
<path d="M0 0 C54.72996795 0 54.72996795 0 67.32421875 12.203125 C67.87722656 12.79609375 68.43023437 13.3890625 69 14 C69.48082031 14.51046875 69.96164062 15.0209375 70.45703125 15.546875 C79.09469143 26.08951763 79.70249181 42.05593795 79 55 C77.75114388 63.92191281 74.81383025 72.71197418 67.92578125 78.84765625 C48.69797643 92.50510225 21.39480195 88 0 88 C0 58.96 0 29.92 0 0 Z " fill="#FEFEFE" transform="translate(197,108)"/>
<path d="M0 0 C53.98921068 33.98910622 53.98921068 33.98910622 63 53 C63.3398291 53.71027344 63.6796582 54.42054688 64.02978516 55.15234375 C66.85242236 61.51236858 67.64031738 66.95267617 67.5 73.875 C67.48718994 74.83954102 67.47437988 75.80408203 67.46118164 76.79785156 C67.12854564 88.51216631 63.98896702 98.20298861 56 107 C52.8559664 109.71198924 49.58566979 111.91440047 46 114 C44.98873047 114.59941406 44.98873047 114.59941406 43.95703125 115.2109375 C31.33169778 121.70675704 15.82424767 121.54533521 2 121 C1.10539062 120.9690625 0.21078125 120.938125 -0.7109375 120.90625 C-9.69362322 120.25768063 -17.99131124 116.48535322 -26.0625 112.75 C-32.70897813 109.8352654 -39.20962533 108.20150846 -46.2265625 110.8359375 C-48.93579611 112.61424503 -49.20931092 114.9690252 -50 118 C-50.99 118 -51.98 118 -53 118 C-53 92.59 -53 67.18 -53 41 C-52.01 41 -51.02 41 -50 41 C-49.90203125 42.258125 -49.8040625 43.51625 -49.703125 44.8125 C-47.78037311 67.55501481 -43.52806204 88.70321611 -25.39453125 104.2109375 C-15.71336904 111.44417126 -6.05754542 113.360314 5.75 113.375 C7.28140625 113.41173828 7.28140625 113.41173828 8.84375 113.44921875 C17.25114083 113.48122658 25.46395448 111.90882179 32.375 106.8125 C39.51809244 99.15918668 41.39917406 91.38510357 41.2734375 81.125 C40.49169271 72.19077385 35.79588835 65.55390192 30 59 C29.41089844 58.31679687 28.82179688 57.63359375 28.21484375 56.9296875 C17.68081125 45.57890099 3.74966213 36.97223732 -9.09985352 28.46337891 C-12.06777476 26.4723839 -13.99179215 25.01231177 -16 22 C-15.154375 21.401875 -14.30875 20.80375 -13.4375 20.1875 C-7.26661878 15.06947055 -3.31021736 7.20459072 0 0 Z " fill="#030303" transform="translate(315,173)"/>
<path d="M0 0 C0.67498535 0.24121582 1.3499707 0.48243164 2.04541016 0.73095703 C39.58078785 14.23923666 69.03213726 43.95516035 86.046875 79.55859375 C99.6582663 109.49142881 102.55700837 142.90631862 96 175 C95.75636719 176.24007812 95.51273437 177.48015625 95.26171875 178.7578125 C90.00478587 201.42989269 78.1447228 222.48796582 63 240 C62.30519531 240.81597656 61.61039062 241.63195312 60.89453125 242.47265625 C47.18996013 258.16620937 30.83566282 270.52319554 11.87597656 279.14599609 C10.09252229 279.95788093 8.32311568 280.80041757 6.5546875 281.64453125 C-27.27390943 297.14603449 -68.22812063 297.14344139 -102.91015625 284.62109375 C-122.5637681 277.03657687 -139.0523368 266.76383905 -155 253 C-154.67 252.01 -154.34 251.02 -154 250 C-152.92298828 250.98226562 -152.92298828 250.98226562 -151.82421875 251.984375 C-124.25589571 276.53911979 -90.26355437 289.46799722 -53.5 289.375 C-52.655513 289.37412384 -51.811026 289.37324768 -50.94094849 289.37234497 C-38.20759881 289.32874019 -26.26420769 288.6787307 -14 285 C-13.1740332 284.76925781 -12.34806641 284.53851563 -11.49707031 284.30078125 C6.65574658 279.17432269 24.38249477 271.07151333 39 259 C39.54172852 258.56075195 40.08345703 258.12150391 40.64160156 257.66894531 C71.49054829 232.56487131 91.1473116 197.31279089 95.75683594 157.64501953 C97.1452005 142.54307007 96.01799201 127.81677971 93 113 C92.79117188 111.91428711 92.79117188 111.91428711 92.578125 110.80664062 C85.47722034 74.34875514 62.69860398 40.47333403 32.0703125 19.5859375 C10.64649759 5.60169596 -15.8917386 -5.12643886 -41.78515625 -5.16796875 C-42.52269638 -5.17129715 -43.26023651 -5.17462555 -44.02012634 -5.17805481 C-45.5774575 -5.18309731 -47.13479936 -5.18546397 -48.69213867 -5.18530273 C-51.03127751 -5.18747106 -53.36992989 -5.20560471 -55.70898438 -5.22460938 C-77.29588659 -5.30790224 -97.65098718 -0.54453205 -117 9 C-117.64984863 9.3187207 -118.29969727 9.63744141 -118.96923828 9.96582031 C-151.28515328 26.01576473 -178.48930531 54.6293201 -190.4375 89 C-191.32440452 91.65801048 -192.16644183 94.32427826 -193 97 C-193.30421875 97.92167969 -193.6084375 98.84335938 -193.921875 99.79296875 C-200.82562286 121.38479242 -201.77440455 143.73822537 -198 166 C-197.82855469 167.23492187 -197.65710938 168.46984375 -197.48046875 169.7421875 C-194.10151181 191.41111139 -184.33006033 212.55060567 -171.19921875 230.01171875 C-169.28978707 232.6062396 -167.60058139 235.20804735 -166 238 C-166.99 238 -167.98 238 -169 238 C-182.12018814 224.07489234 -189.85086683 205.78708991 -196 188 C-196.63228516 186.25783203 -196.63228516 186.25783203 -197.27734375 184.48046875 C-205.3639932 160.70877093 -205.92208314 132.28818607 -200 108 C-199.83902832 107.31647461 -199.67805664 106.63294922 -199.51220703 105.92871094 C-194.07318836 83.53521042 -183.08070794 62.40081686 -168 45 C-167.31550781 44.19433594 -166.63101563 43.38867188 -165.92578125 42.55859375 C-141.44600286 14.47497007 -105.78228169 -5.97098148 -68.20166016 -8.87109375 C-44.67389286 -10.24863435 -22.16765175 -8.16702959 0 0 Z " fill="#1F1F1F" transform="translate(311,50)"/>
<path d="M0 0 C5.2677237 2.72612142 8.67993301 4.38580068 14.5625 3.1875 C17.80749591 1.02416939 18.43422124 -0.25662537 19.3125 -4.0625 C19.395 -4.97 19.4775 -5.8775 19.5625 -6.8125 C20.5525 -6.8125 21.5425 -6.8125 22.5625 -6.8125 C22.5625 13.3175 22.5625 33.4475 22.5625 54.1875 C21.5725 54.1875 20.5825 54.1875 19.5625 54.1875 C19.39814453 52.86298828 19.39814453 52.86298828 19.23046875 51.51171875 C17.1145903 35.4964111 13.45464166 19.14785387 0.5625 8.1875 C-9.36024535 1.32956905 -18.24522558 -2.15947355 -30.375 -2.0625 C-31.33857422 -2.07023437 -32.30214844 -2.07796875 -33.29492188 -2.0859375 C-37.54688387 -2.07431218 -41.33177419 -2.01334986 -45.3828125 -0.6484375 C-48.4375 0.1875 -48.4375 0.1875 -50.65234375 -0.7109375 C-51.22082031 -1.19820313 -51.78929687 -1.68546875 -52.375 -2.1875 C-52.96152344 -2.66960937 -53.54804688 -3.15171875 -54.15234375 -3.6484375 C-54.57644531 -4.03257813 -55.00054687 -4.41671875 -55.4375 -4.8125 C-42.68247115 -17.56752885 -12.98688552 -6.77501299 0 0 Z " fill="#060606" transform="translate(349.4375,109.8125)"/>
<path d="M0 0 C-0.33 0.99 -0.66 1.98 -1 3 C-2.04414063 2.49210937 -3.08828125 1.98421875 -4.1640625 1.4609375 C-12.72161929 -2.58413025 -21.22896338 -5.90245771 -30.375 -8.375 C-31.25236816 -8.61299316 -32.12973633 -8.85098633 -33.03369141 -9.09619141 C-44.80682731 -12.14555452 -56.0281044 -13.32810741 -68.14477539 -13.26074219 C-70.43077203 -13.25003152 -72.71598032 -13.26069272 -75.00195312 -13.2734375 C-87.0848889 -13.28609013 -98.60632143 -11.91240293 -110.3125 -8.8125 C-111.11010742 -8.60254395 -111.90771484 -8.39258789 -112.72949219 -8.17626953 C-120.87108809 -5.92691549 -128.37196891 -2.57669902 -136 1 C-138.32609423 2.0180909 -140.6614652 3.01061989 -143 4 C-142.9140625 2.21484375 -142.9140625 2.21484375 -142 0 C-139.775726 -1.36198695 -137.74902573 -2.41041622 -135.375 -3.4375 C-134.3698938 -3.88754395 -134.3698938 -3.88754395 -133.34448242 -4.34667969 C-90.76392861 -22.98406328 -41.32235659 -21.52417592 0 0 Z " fill="#191919" transform="translate(330,58)"/>
<path d="M0 0 C1.08333333 0.8125 2.16666667 1.625 3.25 2.4375 C3.98605469 2.98664063 4.72210938 3.53578125 5.48046875 4.1015625 C7.2234799 5.41490113 8.9545745 6.74415005 10.67578125 8.0859375 C42.58672305 32.6992485 77.35701887 40.05512515 117 41 C114.43677947 43.56322053 113.45644471 43.25704115 109.8984375 43.265625 C108.85888916 43.26989502 107.81934082 43.27416504 106.74829102 43.27856445 C105.63510498 43.26913818 104.52191895 43.25971191 103.375 43.25 C102.23796631 43.24250732 101.10093262 43.23501465 99.92944336 43.22729492 C63.99078984 42.7708906 25.78871065 28.7422445 0 3 C0 2.01 0 1.02 0 0 Z " fill="#1B1B1B" transform="translate(156,300)"/>
<path d="M0 0 C-1.43506985 4.30520956 -4.7002694 5.44789483 -8.4375 7.625 C-15.35221633 11.79114724 -21.16804585 16.40132401 -27 22 C-28.28780119 23.06718186 -29.57936692 24.12984034 -30.875 25.1875 C-48.10991212 40.33754372 -60.26171899 61.60732099 -68 83 C-69.203125 81.515625 -69.203125 81.515625 -70 79 C-69.06299719 76.06730291 -68.0542519 73.51510753 -66.75 70.75 C-66.38519531 69.95658203 -66.02039063 69.16316406 -65.64453125 68.34570312 C-59.93646041 56.26650271 -52.75259745 45.09915091 -44 35 C-43.31550781 34.19433594 -42.63101563 33.38867188 -41.92578125 32.55859375 C-13.5452856 0 -13.5452856 0 0 0 Z " fill="#191919" transform="translate(187,60)"/>
<path d="M0 0 C0.99 0.33 1.98 0.66 3 1 C-8.60039392 11.042826 -21.11615722 18.47491454 -35 25 C-36.42699219 25.67869141 -36.42699219 25.67869141 -37.8828125 26.37109375 C-51.06647666 32.26518316 -66.2079865 36.40212097 -80.68359375 35.87890625 C-81.73414696 35.84348976 -81.73414696 35.84348976 -82.80592346 35.80735779 C-85.01669722 35.73151403 -87.22704795 35.64715561 -89.4375 35.5625 C-90.94724575 35.50919961 -92.4570114 35.45645994 -93.96679688 35.40429688 C-97.64478363 35.2760085 -101.32244159 35.14008839 -105 35 C-105 34.67 -105 34.34 -105 34 C-104.2565332 33.9906543 -103.51306641 33.98130859 -102.74707031 33.97167969 C-87.12765363 33.72619733 -72.11752246 33.13102201 -57 29 C-56.15953125 28.77070801 -55.3190625 28.54141602 -54.453125 28.30517578 C-35.33543714 22.89255195 -17.09418411 14.16065038 -1.91015625 1.21875 C-1.27980469 0.8165625 -0.64945312 0.414375 0 0 Z " fill="#1A1A1A" transform="translate(354,306)"/>
<path d="M0 0 C0.9271582 0.25740967 1.85431641 0.51481934 2.80957031 0.7800293 C12.99700298 3.72377792 22.88817018 7.69408509 32.375 12.4375 C31.88 13.9225 31.88 13.9225 31.375 15.4375 C30.33085937 14.92960937 29.28671875 14.42171875 28.2109375 13.8984375 C19.65338071 9.85336975 11.14603662 6.53504229 2 4.0625 C1.12263184 3.82450684 0.24526367 3.58651367 -0.65869141 3.34130859 C-12.55539941 0.25993903 -24.10119155 -0.90371252 -36.375 -1.1875 C-37.76564609 -1.22580444 -39.15627162 -1.26486271 -40.546875 -1.3046875 C-43.90612457 -1.39799999 -47.26538202 -1.48378895 -50.625 -1.5625 C-50.625 -1.8925 -50.625 -2.2225 -50.625 -2.5625 C-46.39634325 -2.76286936 -42.16708354 -2.94534805 -37.9375 -3.125 C-36.75865234 -3.18107422 -35.57980469 -3.23714844 -34.36523438 -3.29492188 C-22.53736831 -3.78099856 -11.41802441 -3.25211701 0 0 Z " fill="#1F1F1F" transform="translate(297.625,45.5625)"/>
<path d="M0 0 C12.87357727 4.52643738 24.07974205 14.92157686 34 24 C35.26650391 25.15822266 35.26650391 25.15822266 36.55859375 26.33984375 C42.4788392 32.01383982 47.23949662 38.34880025 52 45 C51.01 45.33 50.02 45.66 49 46 C48.45472656 45.32195312 47.90945313 44.64390625 47.34765625 43.9453125 C33.44044357 26.78119702 18.27373023 13.03745072 -1 2 C-0.67 1.34 -0.34 0.68 0 0 Z " fill="#181818" transform="translate(330,59)"/>
<path d="M0 0 C7 0 7 0 10 2 C9.67 4.31 9.34 6.62 9 9 C8.01 9 7.02 9 6 9 C7.32 11.31 8.64 13.62 10 16 C6.63408134 14.55746343 4.48952921 12.66735273 2 10 C2 11.98 2 13.96 2 16 C1.34 16 0.68 16 0 16 C0 10.72 0 5.44 0 0 Z " fill="#343434" transform="translate(158,345)"/>
<path d="M0 0 C0.66 0 1.32 0 2 0 C6.80779208 14.42337623 3.78171342 37.65485973 -1 52 C-1.66 52 -2.32 52 -3 52 C-2.54080091 46.64670535 -1.9058113 41.38559071 -0.96875 36.09375 C0.19993619 28.60150384 0.2245197 21.25482474 0.125 13.6875 C0.11493218 12.34961621 0.10581316 11.01172493 0.09765625 9.67382812 C0.07437244 6.44902038 0.0416741 3.22461346 0 0 Z " fill="#131313" transform="translate(407,176)"/>
<path d="M0 0 C0.66 0 1.32 0 2 0 C1.53927842 6.45010218 0.17283107 12.4534619 -1.48510742 18.68237305 C-3.04987595 24.74913322 -3.82086252 30.75765881 -4.41015625 36.98828125 C-5.01861402 40.09504244 -5.51296755 41.13304068 -8 43 C-7.77016754 28.22804124 -4.91342676 13.94042011 0 0 Z " fill="#262626" transform="translate(116,141)"/>
<path d="M0 0 C7 0 7 0 9 1.1875 C10 3 10 3 9.8125 5.5625 C9 8 9 8 7 10 C3.875 10.125 3.875 10.125 1 10 C1 11.98 1 13.96 1 16 C0.67 16 0.34 16 0 16 C0 10.72 0 5.44 0 0 Z " fill="#323232" transform="translate(139,345)"/>
<path d="M0 0 C3.01729419 1.50864709 3.36592542 3.80462514 4.625 6.875 C5.07101562 7.94492187 5.51703125 9.01484375 5.9765625 10.1171875 C7 13 7 13 7 16 C6.34 16 5.68 16 5 16 C4.67 15.01 4.34 14.02 4 13 C1.69 13 -0.62 13 -3 13 C-3.33 13.99 -3.66 14.98 -4 16 C-4.66 16 -5.32 16 -6 16 C-5.37183502 12.05050296 -4.1354471 8.80107972 -2.4375 5.1875 C-1.98246094 4.21167969 -1.52742188 3.23585938 -1.05859375 2.23046875 C-0.70925781 1.49441406 -0.35992187 0.75835937 0 0 Z " fill="#404040" transform="translate(334,345)"/>
<path d="M0 0 C3.26564448 2.6527376 4.26470079 5.80364271 5.6875 9.6875 C6.34298828 11.45673828 6.34298828 11.45673828 7.01171875 13.26171875 C7.33785156 14.16535156 7.66398437 15.06898438 8 16 C7.01 15.67 6.02 15.34 5 15 C5 14.01 5 13.02 5 12 C2.36 12.33 -0.28 12.66 -3 13 C-3.33 13.99 -3.66 14.98 -4 16 C-4.66 16 -5.32 16 -6 16 C-4.25192871 10.53262809 -2.34205919 5.24175152 0 0 Z " fill="#2B2B2B" transform="translate(355,345)"/>
<path d="M0 0 C0.66 0 1.32 0 2 0 C3.98 5.28 5.96 10.56 8 16 C7.34 16 6.68 16 6 16 C5.67 14.68 5.34 13.36 5 12 C2.36 12 -0.28 12 -3 12 C-3.33 13.32 -3.66 14.64 -4 16 C-4.66 15.67 -5.32 15.34 -6 15 C-4.02 10.05 -2.04 5.1 0 0 Z " fill="#313131" transform="translate(182,345)"/>
<path d="M0 0 C1.05316406 0.00064453 2.10632813 0.00128906 3.19140625 0.00195312 C7.8254158 0.02838284 12.08969729 0.16232729 16.625 1.1875 C16.625 1.5175 16.625 1.8475 16.625 2.1875 C15.83327393 2.21255615 15.04154785 2.2376123 14.22583008 2.26342773 C10.62956637 2.37965729 7.0335472 2.50226176 3.4375 2.625 C1.56868164 2.68397461 1.56868164 2.68397461 -0.33789062 2.74414062 C-1.53994141 2.78603516 -2.74199219 2.82792969 -3.98046875 2.87109375 C-5.08543701 2.90775146 -6.19040527 2.94440918 -7.32885742 2.98217773 C-10.10523754 3.16931692 -12.6594808 3.60859223 -15.375 4.1875 C-17.31151019 4.25283435 -19.25002861 4.27334303 -21.1875 4.25 C-22.65123047 4.23646484 -22.65123047 4.23646484 -24.14453125 4.22265625 C-25.24861328 4.20525391 -25.24861328 4.20525391 -26.375 4.1875 C-18.89124775 -0.80166817 -8.68808088 -0.10330009 0 0 Z " fill="#171717" transform="translate(257.375,40.8125)"/>
<path d="M0 0 C3.18352727 0.54187698 4.66691062 1.22941062 6.9375 3.5 C6.9375 4.16 6.9375 4.82 6.9375 5.5 C6.40125 5.17 5.865 4.84 5.3125 4.5 C2.3445908 3.25035402 0.12950721 3.22243416 -3.0625 3.5 C-5.37813087 5.38500271 -5.37813087 5.38500271 -5.3125 8.5 C-5.37813087 11.61499729 -5.37813087 11.61499729 -3.0625 13.5 C-0.37410615 13.76991906 2.22891936 13.58737357 4.9375 13.5 C4.9375 12.84 4.9375 12.18 4.9375 11.5 C5.5975 11.5 6.2575 11.5 6.9375 11.5 C5.1875 15.375 5.1875 15.375 2.9375 16.5 C-1.11513598 17.04035146 -2.59980231 16.84199395 -5.9375 14.375 C-8.0625 11.5 -8.0625 11.5 -8.6875 8.5 C-7.64069281 3.47532551 -5.09100787 0.83118496 0 0 Z " fill="#313131" transform="translate(259.0625,344.5)"/>
<path d="M0 0 C3.18352727 0.54187698 4.66691062 1.22941062 6.9375 3.5 C6.9375 4.16 6.9375 4.82 6.9375 5.5 C6.40125 5.17 5.865 4.84 5.3125 4.5 C2.3445908 3.25035402 0.12950721 3.22243416 -3.0625 3.5 C-5.37813087 5.38500271 -5.37813087 5.38500271 -5.3125 8.5 C-5.37813087 11.61499729 -5.37813087 11.61499729 -3.0625 13.5 C-0.37410615 13.76991906 2.22891936 13.58737357 4.9375 13.5 C4.9375 12.84 4.9375 12.18 4.9375 11.5 C5.5975 11.5 6.2575 11.5 6.9375 11.5 C5.1875 15.375 5.1875 15.375 2.9375 16.5 C-1.11513598 17.04035146 -2.59980231 16.84199395 -5.9375 14.375 C-8.0625 11.5 -8.0625 11.5 -8.6875 8.5 C-7.64069281 3.47532551 -5.09100787 0.83118496 0 0 Z " fill="#313131" transform="translate(206.0625,344.5)"/>
<path d="M0 0 C2.97 0 5.94 0 9 0 C9 0.66 9 1.32 9 2 C6.69 2 4.38 2 2 2 C2 3.65 2 5.3 2 7 C4.31 7 6.62 7 9 7 C9 7.66 9 8.32 9 9 C6.69 9 4.38 9 2 9 C2 10.65 2 12.3 2 14 C4.31 14 6.62 14 9 14 C9 14.66 9 15.32 9 16 C6.03 16 3.06 16 0 16 C0 10.72 0 5.44 0 0 Z " fill="#3C3C3C" transform="translate(276,345)"/>
<path d="M0 0 C0.66 0.99 1.32 1.98 2 3 C-0.64 3 -3.28 3 -6 3 C-5.67 3.99 -5.34 4.98 -5 6 C-3.845 6.45375 -2.69 6.9075 -1.5 7.375 C2 9 2 9 3.0625 11.5625 C3 14 3 14 1 16 C-1.68839385 16.26991906 -4.29141936 16.08737357 -7 16 C-7.66 14.68 -8.32 13.36 -9 12 C-8.34 12 -7.68 12 -7 12 C-7 12.66 -7 13.32 -7 14 C-5.02 14 -3.04 14 -1 14 C-0.34 12.68 0.32 11.36 1 10 C-1.97 9.01 -4.94 8.02 -8 7 C-8.33 5.35 -8.66 3.7 -9 2 C-5.54970958 -0.30019361 -4.05445642 -0.43132515 0 0 Z " fill="#313131" transform="translate(317,345)"/>
<path d="M0 0 C1.83867432 2.75801148 2.40971705 4.11789935 3.0703125 7.23828125 C3.33134766 8.46901367 3.33134766 8.46901367 3.59765625 9.72460938 C3.77167969 10.57861328 3.94570313 11.43261719 4.125 12.3125 C4.39763672 13.57610352 4.39763672 13.57610352 4.67578125 14.86523438 C5.60157031 19.31667879 6.22385885 23.42581758 6 28 C5.01 28 4.02 28 3 28 C2.87882812 27.17757812 2.75765625 26.35515625 2.6328125 25.5078125 C1.70888005 19.35300096 0.71107225 13.27529634 -0.73046875 7.21875 C-1.04752367 4.60879067 -0.63004208 2.53804185 0 0 Z " fill="#2C2C2C" transform="translate(403,148)"/>
<path d="M0 0 C0.33 0 0.66 0 1 0 C1.33 10.89 1.66 21.78 2 33 C1.34 33 0.68 33 0 33 C-0.74601398 29.66553233 -1.12805176 26.57887523 -1.1328125 23.1640625 C-1.13410156 22.26429688 -1.13539062 21.36453125 -1.13671875 20.4375 C-1.13285156 19.509375 -1.12898438 18.58125 -1.125 17.625 C-1.12886719 16.70460937 -1.13273437 15.78421875 -1.13671875 14.8359375 C-1.1294994 9.78239293 -0.86435917 4.98035523 0 0 Z " fill="#141414" transform="translate(109,177)"/>
<path d="M0 0 C0 0.99 0 1.98 0 3 C-4.99254151 3.83915384 -9.5999163 4.06265363 -14.68359375 3.87890625 C-15.38396255 3.85529526 -16.08433136 3.83168427 -16.80592346 3.80735779 C-19.01669722 3.73151403 -21.22704795 3.64715561 -23.4375 3.5625 C-24.94724575 3.50919961 -26.4570114 3.45645994 -27.96679688 3.40429688 C-31.64478363 3.2760085 -35.32244159 3.14008839 -39 3 C-39 2.67 -39 2.34 -39 2 C-38.18321777 1.97494385 -37.36643555 1.9498877 -36.52490234 1.92407227 C-32.80812451 1.80770857 -29.09157498 1.68516528 -25.375 1.5625 C-24.08980469 1.52318359 -22.80460937 1.48386719 -21.48046875 1.44335938 C-20.23652344 1.40146484 -18.99257813 1.35957031 -17.7109375 1.31640625 C-16.56931152 1.27974854 -15.42768555 1.24309082 -14.25146484 1.20532227 C-9.4279292 0.90072747 -4.85168514 -0.14269662 0 0 Z " fill="#575757" transform="translate(288,338)"/>
<path d="M0 0 C0.33 0.66 0.66 1.32 1 2 C-1.8937133 2.84137043 -4.78959397 3.6733036 -7.6875 4.5 C-8.50412109 4.73847656 -9.32074219 4.97695313 -10.16210938 5.22265625 C-14.19171125 6.36464868 -17.76504847 7.34500623 -22 7 C-19.82649847 3.7397477 -19.47636771 3.54710068 -15.9375 2.578125 C-14.74253906 2.24748047 -14.74253906 2.24748047 -13.5234375 1.91015625 C-12.69070313 1.69230469 -11.85796875 1.47445313 -11 1.25 C-10.16726563 1.01667969 -9.33453125 0.78335937 -8.4765625 0.54296875 C-2.26897321 -1.13448661 -2.26897321 -1.13448661 0 0 Z " fill="#323232" transform="translate(309,333)"/>
<path d="M0 0 C-2 2 -2 2 -5.71533203 2.13525391 C-7.3131393 2.09288067 -8.91067147 2.03920509 -10.5078125 1.9765625 C-11.34843231 1.95153656 -12.18905212 1.92651062 -13.05514526 1.90072632 C-15.74550058 1.81841854 -18.43513347 1.72187164 -21.125 1.625 C-22.94658487 1.56677139 -24.76819957 1.50946789 -26.58984375 1.453125 C-31.06031288 1.31282386 -35.53018527 1.15974899 -40 1 C-40 0.67 -40 0.34 -40 0 C-35.77134325 -0.20036936 -31.54208354 -0.38284805 -27.3125 -0.5625 C-26.13365234 -0.61857422 -24.95480469 -0.67464844 -23.74023438 -0.73242188 C-15.74289729 -1.06107956 -7.96392699 -0.79664191 0 0 Z " fill="#4B4B4B" transform="translate(287,43)"/>
<path d="M0 0 C0.99 0.33 1.98 0.66 3 1 C1.27427512 2.44163007 -0.4557347 3.87813165 -2.1875 5.3125 C-3.63189453 6.51326172 -3.63189453 6.51326172 -5.10546875 7.73828125 C-11.83937824 13 -11.83937824 13 -15 13 C-13.75507761 9.26523283 -12.41571777 8.6552962 -9.1875 6.5 C-5.43255564 3.98387871 -5.43255564 3.98387871 -1.86328125 1.21875 C-1.24839844 0.8165625 -0.63351562 0.414375 0 0 Z " fill="#161616" transform="translate(354,306)"/>
<path d="M0 0 C3.3 0 6.6 0 10 0 C8.68 0.33 7.36 0.66 6 1 C6 5.95 6 10.9 6 16 C5.34 16 4.68 16 4 16 C4 11.38 4 6.76 4 2 C2.68 2 1.36 2 0 2 C0 1.34 0 0.68 0 0 Z " fill="#313131" transform="translate(221,345)"/>
<path d="M0 0 C0.66 0.33 1.32 0.66 2 1 C2.625 4.0625 2.625 4.0625 3 7 C2.01 6.34 1.02 5.68 0 5 C-0.66 6.65 -1.32 8.3 -2 10 C-0.35 10 1.3 10 3 10 C3 10.33 3 10.66 3 11 C1.02 11 -0.96 11 -3 11 C-3.33 12.65 -3.66 14.3 -4 16 C-4.66 16 -5.32 16 -6 16 C-5.37183502 12.05050296 -4.1354471 8.80107972 -2.4375 5.1875 C-1.98246094 4.21167969 -1.52742188 3.23585938 -1.05859375 2.23046875 C-0.70925781 1.49441406 -0.35992187 0.75835937 0 0 Z " fill="#333333" transform="translate(334,345)"/>
<path d="M0 0 C-4.6154263 3.38464596 -9.48086654 4.08907506 -15 5 C-15.33 4.01 -15.66 3.02 -16 2 C-14.08654673 1.46748234 -12.1690705 0.94940517 -10.25 0.4375 C-9.18265625 0.14746094 -8.1153125 -0.14257812 -7.015625 -0.44140625 C-4.15664073 -0.97098494 -2.68402617 -0.98370862 0 0 Z " fill="#323232" transform="translate(234,44)"/>
<path d="M0 0 C-1.56580666 3.13161332 -4.17815522 3.45604434 -7.375 4.6875 C-8.53773438 5.14511719 -9.70046875 5.60273438 -10.8984375 6.07421875 C-14 7 -14 7 -17 6 C-11.69870306 2.6264474 -6.46363667 -0.58760333 0 0 Z " fill="#1A1A1A" transform="translate(325,327)"/>
<path d="M0 0 C0.66 0.33 1.32 0.66 2 1 C-1.54352618 5.31385796 -5.95192247 6.9721398 -11 9 C-10.80859375 7.17578125 -10.80859375 7.17578125 -10 5 C-7.78515625 3.48046875 -7.78515625 3.48046875 -5.0625 2.1875 C-4.16660156 1.74792969 -3.27070313 1.30835938 -2.34765625 0.85546875 C-1.57292969 0.57316406 -0.79820312 0.29085937 0 0 Z " fill="#292929" transform="translate(198,53)"/>
<path d="M0 0 C3.97818315 0.26086447 7.04507332 1.01981986 10.8125 2.25 C10.8125 3.24 10.8125 4.23 10.8125 5.25 C5.5325 4.26 0.2525 3.27 -5.1875 2.25 C-3.1875 0.25 -3.1875 0.25 0 0 Z " fill="#2F2F2F" transform="translate(288.1875,43.75)"/>
<path d="M0 0 C0.66 0.33 1.32 0.66 2 1 C1.88490339 2.41750563 1.75746342 3.83401169 1.625 5.25 C1.55539062 6.03890625 1.48578125 6.8278125 1.4140625 7.640625 C0.97458992 10.14478952 0.38572115 11.86957156 -1 14 C-1.99 14.33 -2.98 14.66 -4 15 C-3.79503906 14.25234375 -3.59007812 13.5046875 -3.37890625 12.734375 C-3.10949219 11.74953125 -2.84007812 10.7646875 -2.5625 9.75 C-2.29566406 8.77546875 -2.02882813 7.8009375 -1.75390625 6.796875 C-1.14455416 4.53627347 -0.55761745 2.27377991 0 0 Z " fill="#2F2F2F" transform="translate(403,227)"/>
<path d="M0 0 C1.65 0 3.3 0 5 0 C5.38218767 1.65614657 5.71395102 3.32457024 6 5 C5 6 5 6 2.4375 6.0625 C1.2309375 6.0315625 1.2309375 6.0315625 0 6 C0 4.02 0 2.04 0 0 Z " fill="#FDFDFD" transform="translate(160,347)"/>
<path d="M0 0 C1.65 0 3.3 0 5 0 C5.38218767 1.65614657 5.71395102 3.32457024 6 5 C5 6 5 6 2.4375 6.0625 C1.2309375 6.0315625 1.2309375 6.0315625 0 6 C0 4.02 0 2.04 0 0 Z " fill="#FAFAFA" transform="translate(141,347)"/>
<path d="M0 0 C0.66 0 1.32 0 2 0 C3.75210338 4.48976491 4.37076135 8.18010242 4 13 C3.34 13.66 2.68 14.32 2 15 C1.66223316 13.2508503 1.32996329 11.50063855 1 9.75 C0.814375 8.77546875 0.62875 7.8009375 0.4375 6.796875 C0 4 0 4 0 0 Z " fill="#2B2B2B" transform="translate(109,210)"/>
<path d="M0 0 C0.66 0.33 1.32 0.66 2 1 C1.85866501 2.77119803 1.71176792 4.54195287 1.5625 6.3125 C1.48128906 7.29863281 1.40007812 8.28476563 1.31640625 9.30078125 C1 12 1 12 0 15 C-0.66 15 -1.32 15 -2 15 C-1.03644647 4.44191344 -1.03644647 4.44191344 0 0 Z " fill="#1B1B1B" transform="translate(406,213)"/>
<path d="M0 0 C4.12751449 0.60698743 7.3321148 2.03810791 11 4 C10.67 4.99 10.34 5.98 10 7 C6.37 5.35 2.74 3.7 -1 2 C-0.67 1.34 -0.34 0.68 0 0 Z " fill="#232323" transform="translate(319,54)"/>
<path d="M0 0 C1.125 3.75 1.125 3.75 0 6 C-0.99 6 -1.98 6 -3 6 C-1.68 8.31 -0.36 10.62 1 13 C-2.36179774 11.55922954 -4.59156268 9.75249979 -7 7 C-7 6.34 -7 5.68 -7 5 C-5.5459375 4.5978125 -5.5459375 4.5978125 -4.0625 4.1875 C-3.051875 3.795625 -2.04125 3.40375 -1 3 C-0.67 2.01 -0.34 1.02 0 0 Z " fill="#252525" transform="translate(167,348)"/>
<path d="M0 0 C3.48961981 3.02433717 4.88132949 5.52531798 6 10 C6 11.32 6 12.64 6 14 C5.34 14 4.68 14 4 14 C3.32739649 12.23141309 2.66211605 10.46003984 2 8.6875 C1.62875 7.70136719 1.2575 6.71523437 0.875 5.69921875 C0 3 0 3 0 0 Z " fill="#181818" transform="translate(397,135)"/>
<path d="M0 0 C2.11386464 2.11386464 2.97008322 3.79267603 4.1875 6.5 C4.55230469 7.2940625 4.91710937 8.088125 5.29296875 8.90625 C5.52628906 9.5971875 5.75960938 10.288125 6 11 C5.67 11.66 5.34 12.32 5 13 C4.34 13 3.68 13 3 13 C2.29819469 11.5903653 1.61406042 10.17192359 0.9375 8.75 C0.55464844 7.96109375 0.17179687 7.1721875 -0.22265625 6.359375 C-1.08564091 3.74006478 -0.93045933 2.55144824 0 0 Z " fill="#252525" transform="translate(393,123)"/>
<path d="M0 0 C0.66 0.99 1.32 1.98 2 3 C-0.64 3 -3.28 3 -6 3 C-6 4.32 -6 5.64 -6 7 C-6.99 6.67 -7.98 6.34 -9 6 C-8.625 3.5625 -8.625 3.5625 -8 1 C-5.21136993 -0.39431504 -3.07921132 -0.25660094 0 0 Z " fill="#434343" transform="translate(317,345)"/>
<path d="M0 0 C3.21852831 0.63065757 5.50801069 1.78020695 8.25 3.5625 C8.95640625 4.01753906 9.6628125 4.47257812 10.390625 4.94140625 C11.18726563 5.46541016 11.18726563 5.46541016 12 6 C11.01 6.66 10.02 7.32 9 8 C7.49460339 7.05016642 5.99579653 6.08988109 4.5 5.125 C3.6646875 4.59132813 2.829375 4.05765625 1.96875 3.5078125 C1.3190625 3.01023437 0.669375 2.51265625 0 2 C0 1.34 0 0.68 0 0 Z " fill="#212121" transform="translate(172,314)"/>
<path d="M0 0 C0.66 0 1.32 0 2 0 C0.5140084 4.59306496 -1.85014682 7.43569245 -5 11 C-5.99 10.67 -6.98 10.34 -8 10 C-6.71580959 8.32756598 -5.42242815 6.66218553 -4.125 5 C-3.04605469 3.6078125 -3.04605469 3.6078125 -1.9453125 2.1875 C-1.30335938 1.465625 -0.66140625 0.74375 0 0 Z " fill="#151515" transform="translate(380,278)"/>
<path d="M0 0 C0.66 0.99 1.32 1.98 2 3 C0.35 5.64 -1.3 8.28 -3 11 C-3.66 10.67 -4.32 10.34 -5 10 C-3.66511872 6.40608886 -2.03977277 3.24509304 0 0 Z " fill="#242424" transform="translate(386,268)"/>
<path d="M0 0 C4.41889613 1.35021826 6.34345343 3.26115668 9 7 C5.13066838 6.42676569 2.84777943 4.61046448 0 2 C0 1.34 0 0.68 0 0 Z " fill="#1F1F1F" transform="translate(356,78)"/>
<path d="M0 0 C0.33 0.66 0.66 1.32 1 2 C0.22265625 3.9453125 0.22265625 3.9453125 -0.9375 6.125 C-1.31777344 6.84945312 -1.69804688 7.57390625 -2.08984375 8.3203125 C-2.39019531 8.87460938 -2.69054687 9.42890625 -3 10 C-3.66 10 -4.32 10 -5 10 C-4.4454626 6.67277559 -3.75986957 3.8986087 -2 1 C-1.34 0.67 -0.68 0.34 0 0 Z " fill="#151515" transform="translate(126,122)"/>
<path d="M0 0 C3.3 0.99 6.6 1.98 10 3 C10 3.66 10 4.32 10 5 C6.28111761 4.49287967 3.26545761 3.88391785 0 2 C0 1.34 0 0.68 0 0 Z " fill="#161616" transform="translate(309,50)"/>
<path d="M0 0 C0.99 0.33 1.98 0.66 3 1 C1.02 3.31 -0.96 5.62 -3 8 C-3.66 7.34 -4.32 6.68 -5 6 C-3.35 4.02 -1.7 2.04 0 0 Z " fill="#1E1E1E" transform="translate(149,88)"/>
<path d="M0 0 C2.35953094 2.35953094 2.49141413 3.77895617 3 7 C1.35 7 -0.3 7 -2 7 C-1.34 4.69 -0.68 2.38 0 0 Z " fill="#E8E8E8" transform="translate(334,348)"/>
<path d="M0 0 C0.66 0.33 1.32 0.66 2 1 C2.625 4.0625 2.625 4.0625 3 7 C1.35 7 -0.3 7 -2 7 C-1.34 4.69 -0.68 2.38 0 0 Z " fill="#E3E3E3" transform="translate(355,348)"/>
<path d="M0 0 C0.66 0 1.32 0 2 0 C2.66 1.98 3.32 3.96 4 6 C2.02 6 0.04 6 -2 6 C-1.34 4.02 -0.68 2.04 0 0 Z " fill="#E9E9E9" transform="translate(182,349)"/>
<path d="M0 0 C-2.05233685 2.2477975 -3.00667261 3.0022242 -6 4 C-6.99 3.34 -7.98 2.68 -9 2 C-3.375 -1.125 -3.375 -1.125 0 0 Z " fill="#2B2B2B" transform="translate(331,324)"/>
<path d="M0 0 C0.66 0 1.32 0 2 0 C1.5206753 4.31392226 0.2542015 6.16569547 -3 9 C-2.44271087 5.65626525 -1.64826111 2.96687001 0 0 Z " fill="#161616" transform="translate(390,261)"/>
<path d="M0 0 C3 1 3 1 4.1875 2.875 C5 5 5 5 5 8 C4.34 8 3.68 8 3 8 C0 2.25 0 2.25 0 0 Z " fill="#131313" transform="translate(388,117)"/>
<path d="M0 0 C0.33 0.66 0.66 1.32 1 2 C3.31 2 5.62 2 8 2 C8 2.33 8 2.66 8 3 C5.69 3.33 3.38 3.66 1 4 C0.67 4.99 0.34 5.98 0 7 C-0.66 7 -1.32 7 -2 7 C-1.34 4.69 -0.68 2.38 0 0 Z " fill="#414141" transform="translate(351,354)"/>
<path d="M0 0 C3.125 -0.1875 3.125 -0.1875 6 0 C6 0.66 6 1.32 6 2 C3.36 2.33 0.72 2.66 -2 3 C-1.34 2.01 -0.68 1.02 0 0 Z " fill="#222222" transform="translate(289,337)"/>
<path d="M0 0 C0.33 0 0.66 0 1 0 C1.36923077 5.41538462 1.36923077 5.41538462 -0.5 8.375 C-0.995 8.91125 -1.49 9.4475 -2 10 C-2.6875 8.375 -2.6875 8.375 -3 6 C-1.5625 2.75 -1.5625 2.75 0 0 Z " fill="#272727" transform="translate(394,253)"/>
<path d="M0 0 C0.99 0.33 1.98 0.66 3 1 C2.67 2.98 2.34 4.96 2 7 C1.01 7.33 0.02 7.66 -1 8 C-0.67 5.36 -0.34 2.72 0 0 Z " fill="#383838" transform="translate(112,154)"/>
<path d="M0 0 C0.66 0.33 1.32 0.66 2 1 C2.625 4.0625 2.625 4.0625 3 7 C2.01 6.34 1.02 5.68 0 5 C-0.66 5.66 -1.32 6.32 -2 7 C-1.125 1.125 -1.125 1.125 0 0 Z " fill="#1F1F1F" transform="translate(334,345)"/>
<path d="M0 0 C2.625 -0.1875 2.625 -0.1875 5 0 C5 0.99 5 1.98 5 3 C2.69 3 0.38 3 -2 3 C-1.34 2.01 -0.68 1.02 0 0 Z " fill="#3A3A3A" transform="translate(283,338)"/>
<path d="M0 0 C3 2 3 2 3.6875 5.125 C3.8421875 6.548125 3.8421875 6.548125 4 8 C3.34 8 2.68 8 2 8 C0.74335022 5.09399739 0 3.20395416 0 0 Z " fill="#161616" transform="translate(117,241)"/>
<path d="M0 0 C0.66 0 1.32 0 2 0 C2.33 2.64 2.66 5.28 3 8 C2.34 8 1.68 8 1 8 C-0.35439668 5.29120665 -0.06501451 2.99066732 0 0 Z " fill="#181818" transform="translate(112,223)"/>
</svg>
