<?xml version="1.0" encoding="UTF-8"?>
<svg version="1.1" xmlns="http://www.w3.org/2000/svg" width="392" height="392">
<path d="M0 0 C5.01252253 -0.70085 8.23386844 0.77294906 12.640625 3.0625 C13.24888123 3.37324463 13.85713745 3.68398926 14.48382568 4.00415039 C16.4119493 4.99148255 18.33114382 5.99479307 20.25 7 C22.18447002 8.0023111 24.12062713 9.00114832 26.059021 9.99584961 C27.80878713 10.89542613 29.55345539 11.80489791 31.29785156 12.71484375 C33.80232262 14.1431676 33.80232262 14.1431676 36 14 C36.495 14.99 36.495 14.99 37 16 C39.2115997 17.19297909 41.42033976 18.29683935 43.6875 19.375 C50.29161594 22.59365567 56.75710691 26.0103332 63.1875 29.5625 C72.00759508 34.42440792 80.91651396 39.08806391 89.875 43.6875 C98.27171479 47.99877463 106.61223567 52.37016552 114.80004883 57.06884766 C119.91939672 59.99558899 125.15816431 62.62680565 130.44921875 65.2265625 C136.70337839 68.35020219 142.84717665 71.68230113 149 75 C149 75.66 149 76.32 149 77 C149.66 77 150.32 77 151 77 C154.18886812 81.99127184 154.48279411 86.5277729 154.7890625 92.390625 C154.83490293 94.98121468 154.83490293 94.98121468 156 97 C155.34 97 154.68 97 154 97 C154.99 101.95 154.99 101.95 156 107 C155.34 107 154.68 107 154 107 C154.350625 107.886875 154.70125 108.77375 155.0625 109.6875 C156.04848769 113.17132316 155.79029659 114.57538144 155 118 C155.37722015 120.72502965 155.37722015 120.72502965 156 123 C155.34 123 154.68 123 154 123 C154.99 126.465 154.99 126.465 156 130 C155.34 130.33 154.68 130.66 154 131 C154.350625 132.11375 154.70125 133.2275 155.0625 134.375 C156 138 156 138 155 140 C155.33 140.33 155.66 140.66 156 141 C156.04080783 142.99958364 156.04254356 145.00045254 156 147 C155.34 147 154.68 147 154 147 C154.33 147.53625 154.66 148.0725 155 148.625 C156.24055543 151.57131915 156.13232414 153.82422056 156 157 C156 158.32 156 159.64 156 161 C156 161.99 156 162.98 156 164 C155.34 164 154.68 164 154 164 C154.66 165.98 155.32 167.96 156 170 C155.34 170.33 154.68 170.66 154 171 C154.37125 171.9075 154.7425 172.815 155.125 173.75 C156 177 156 177 155.125 179.375 C154.568125 180.179375 154.568125 180.179375 154 181 C154.66 181.33 155.32 181.66 156 182 C156 188.93 156 195.86 156 203 C155.34 203 154.68 203 154 203 C154.350625 203.886875 154.70125 204.77375 155.0625 205.6875 C156.0373431 209.13194564 155.82272025 210.61770563 155 214 C155.33 214.99 155.66 215.98 156 217 C155.69972883 218.67293936 155.36442233 220.33985384 155 222 C154.89234095 225.92262006 154.89234095 225.92262006 155.5625 229.4375 C155.97074247 232.76176014 155.77737083 234.80414213 155 238 C154.85944142 241.89178586 154.85944142 241.89178586 155.6875 245.1875 C156.06612884 249.80677182 155.6183516 254.06846901 153 258 C149.45764001 259.8422302 147.74731611 260.21753744 143.88671875 259.09375 C142.83097656 258.5678125 141.77523437 258.041875 140.6875 257.5 C139.11548828 256.74203125 139.11548828 256.74203125 137.51171875 255.96875 C134.79202348 254.51638233 132.26372937 252.8621148 129.71484375 251.12890625 C124.93609297 247.89144466 119.96468581 245.15119614 114.875 242.4375 C107.10025411 238.24436383 99.3694579 233.98589046 91.6875 229.625 C83.59879227 225.03441008 75.49465531 220.47313983 67.375 215.9375 C59.7277645 211.66312937 52.10006834 207.35767361 44.5 203 C36.49176731 198.41518747 28.47355875 193.84838817 20.4375 189.3125 C18.82101563 188.39307617 18.82101563 188.39307617 17.171875 187.45507812 C16.16511719 186.88853516 15.15835938 186.32199219 14.12109375 185.73828125 C13.2283374 185.23337158 12.33558105 184.72846191 11.41577148 184.20825195 C9.23837443 183.11922335 7.34727533 182.56080223 5 182 C3.33203125 180.44140625 3.33203125 180.44140625 1.8125 178.5625 C1.30332031 177.94503906 0.79414062 177.32757813 0.26953125 176.69140625 C-2.34808835 173.20393152 -2.12790431 170.65102017 -2.13371277 166.32582092 C-2.13597833 165.63202487 -2.13824388 164.93822882 -2.14057809 164.22340864 C-2.14693286 161.88728503 -2.14608779 159.55121921 -2.14526367 157.21508789 C-2.14825423 155.54480412 -2.15165652 153.87452105 -2.15544128 152.20423889 C-2.16429569 147.65884263 -2.16661999 143.11346517 -2.16725707 138.56806111 C-2.16820499 134.77811592 -2.17188192 130.98817514 -2.17542917 127.19823164 C-2.1835791 118.25951219 -2.1860129 109.32080282 -2.18530273 100.38208008 C-2.1847017 91.15033256 -2.19525745 81.91864343 -2.2110464 72.68691069 C-2.22410571 64.77011338 -2.22948731 56.8533352 -2.22884732 48.93652719 C-2.22859187 44.20411945 -2.23146886 39.47176358 -2.24202538 34.73936653 C-2.25167941 30.28987217 -2.25180415 25.84047955 -2.24450874 21.39098167 C-2.24345955 19.75549293 -2.24584548 18.11999794 -2.2518692 16.48451996 C-2.25954512 14.2566131 -2.25497387 12.02906149 -2.24723816 9.80116272 C-2.24805531 7.92874956 -2.24805531 7.92874956 -2.24888897 6.01850986 C-2 3 -2 3 0 0 Z M154 188 C155 190 155 190 155 190 Z M154 194 C155 196 155 196 155 196 Z " fill="#FEA13C" transform="translate(33,108)"/>
<path d="M0 0 C2.39821105 2.33528228 2.96781129 3.73708931 3.37752342 7.08353233 C3.3786545 8.30356768 3.37978558 9.52360302 3.38095093 10.78060913 C3.3856309 11.46174668 3.39031087 12.14288423 3.39513266 12.84466231 C3.40709546 15.12629475 3.39762074 17.40732797 3.38818359 19.68896484 C3.39224882 21.32512259 3.39759042 22.96127758 3.40411377 24.59742737 C3.41780126 29.04173485 3.41248226 33.48583361 3.40297651 37.93014479 C3.39538477 42.58117202 3.40242442 47.2321813 3.40713501 51.88320923 C3.41259506 59.69626067 3.40539554 67.50922709 3.39111328 75.32226562 C3.3747977 84.35181897 3.38006631 93.38116898 3.3965925 102.41071737 C3.41021388 110.16371155 3.41212349 117.91664457 3.40427649 125.66964686 C3.3996021 130.29985232 3.39896848 134.92996228 3.40888596 139.56016159 C3.41756242 143.91536644 3.4115213 148.27030973 3.39420319 152.62548637 C3.39024148 154.22262195 3.39136699 155.8197796 3.39799118 157.41690636 C3.40620986 159.60004104 3.39588209 161.78234179 3.38095093 163.96542358 C3.37981985 165.18621298 3.37868877 166.40700237 3.37752342 167.66478539 C2.87153521 172.13491672 1.5299993 175.6215458 -1.84863281 178.66552734 C-2.89035645 179.30675537 -2.89035645 179.30675537 -3.953125 179.9609375 C-4.75169922 180.4569043 -5.55027344 180.95287109 -6.37304688 181.46386719 C-11.13229709 184.24687856 -15.92197172 186.96299514 -20.75 189.625 C-22.98868725 190.86906135 -25.22696267 192.11386405 -27.46484375 193.359375 C-28.5719873 193.97490234 -29.67913086 194.59042969 -30.81982422 195.22460938 C-35.33451771 197.74501864 -39.82641665 200.30409526 -44.3125 202.875 C-45.14426758 203.35146973 -45.97603516 203.82793945 -46.83300781 204.31884766 C-48.59145805 205.32656217 -50.34975386 206.33454618 -52.10791016 207.34277344 C-55.33487272 209.19188891 -58.56365439 211.03780872 -61.79296875 212.8828125 C-62.67438538 213.38639282 -62.67438538 213.38639282 -63.5736084 213.90014648 C-65.98833651 215.27966305 -68.40313581 216.65905498 -70.81793213 218.03845215 C-72.61433237 219.06463799 -74.41069675 220.09088657 -76.20703125 221.1171875 C-76.79013062 221.45032959 -77.37322998 221.78347168 -77.97399902 222.12670898 C-81.50900966 224.14678626 -85.04226825 226.16989031 -88.57421875 228.1953125 C-99.06563657 234.20848123 -109.58804065 240.16306515 -120.15649414 246.04003906 C-124.62229 248.52667937 -129.07588887 251.01744917 -133.44921875 253.6640625 C-134.08545166 254.04530273 -134.72168457 254.42654297 -135.37719727 254.81933594 C-136.96989726 255.78131873 -138.55197339 256.76083543 -140.1328125 257.7421875 C-143.67699222 259.29699114 -146.16840599 259.44176025 -150 259 C-151.68328953 257.90616226 -151.68328953 257.90616226 -153 256 C-153.38031673 252.94860458 -153.38031673 252.94860458 -153.38768005 249.11859131 C-153.39306559 248.41451244 -153.39845113 247.71043356 -153.40399987 246.98501897 C-153.41833642 244.61971897 -153.41116189 242.25497415 -153.40405273 239.88964844 C-153.40975351 238.19614714 -153.41671663 236.50264969 -153.42485046 234.80915833 C-153.44283378 230.20358581 -153.44160328 225.59820329 -153.43590808 220.99260616 C-153.43282231 217.14829863 -153.43890217 213.30402792 -153.44494683 209.45972562 C-153.45900871 200.38799572 -153.45741821 191.31635993 -153.44604492 182.24462891 C-153.43457412 172.88845607 -153.44861809 163.53257022 -153.4754414 154.17643523 C-153.4976068 146.14403952 -153.50423352 138.11173383 -153.49836498 130.0793097 C-153.49499475 125.28190639 -153.49741434 120.48468685 -153.51461601 115.68730927 C-153.53009541 111.17283367 -153.5261186 106.65878224 -153.50731087 102.14432335 C-153.50362709 100.489553 -153.50672732 98.83475117 -153.51719666 97.18000984 C-153.53042426 94.9159677 -153.5188451 92.65332595 -153.50120544 90.38934326 C-153.50099616 89.12393078 -153.50078688 87.8585183 -153.50057125 86.55475998 C-152.79016426 81.50987108 -150.90859107 77.57821119 -146.89428711 74.25878906 C-145.75358765 73.64342285 -145.75358765 73.64342285 -144.58984375 73.015625 C-143.70925293 72.52900391 -142.82866211 72.04238281 -141.92138672 71.54101562 C-140.9573291 71.03248047 -139.99327148 70.52394531 -139 70 C-137.96762207 69.43474609 -136.93524414 68.86949219 -135.87158203 68.28710938 C-132.44686522 66.41917401 -129.00682816 64.58137079 -125.5625 62.75 C-124.31874716 62.08604433 -123.07509598 61.42189822 -121.83154297 60.75756836 C-114.01636501 56.58648425 -106.17661614 52.4632489 -98.32519531 48.36083984 C-93.76033732 45.96353363 -89.26912836 43.46732693 -84.8125 40.875 C-80.239659 38.22977124 -75.61692627 35.76238326 -70.875 33.4375 C-63.99210135 30.06052949 -57.23098535 26.47688921 -50.4815979 22.84088135 C-46.85515203 20.88852611 -43.22386685 18.94517639 -39.59333801 17.00042725 C-36.46177632 15.32229986 -33.33241858 13.64028583 -30.20703125 11.95068359 C-27.12870964 10.28771395 -24.04270994 8.63985624 -20.95108032 7.00177002 C-19.22657535 6.08331125 -17.51002297 5.14996987 -15.79370117 4.21630859 C-5.53948604 -1.19073064 -5.53948604 -1.19073064 0 0 Z " fill="#FEA13D" transform="translate(356,108)"/>
<path d="M0 0 C1.07556152 0.59321045 2.15112305 1.1864209 3.25927734 1.79760742 C5.02516809 2.74288708 6.79109225 3.68810671 8.55822754 4.63105774 C9.80539469 5.29775578 11.05138945 5.96665112 12.29626465 6.63761902 C19.20543837 10.36061217 26.19012594 13.93389759 33.17572021 17.51077271 C43.38264802 22.7393521 53.58741169 27.97134961 63.65625 33.46289062 C66.7492265 35.23934929 66.7492265 35.23934929 70.19677734 35.79760742 C70.61209717 36.22759033 71.02741699 36.65757324 71.45532227 37.10058594 C73.74869575 39.33544351 76.2035581 40.50355855 79.06005859 41.94995117 C79.64038849 42.24633484 80.22071838 42.54271851 80.81863403 42.8480835 C82.06545337 43.48445694 83.31352405 44.11838352 84.56271362 44.75009155 C87.85116595 46.41414072 91.12918267 48.09849481 94.40771484 49.78198242 C95.39652901 50.28909004 95.39652901 50.28909004 96.40531921 50.80644226 C102.52562815 53.95188889 108.59270668 57.19089006 114.63427734 60.48510742 C115.51962158 60.96520264 116.40496582 61.44529785 117.31713867 61.93994141 C129.66200027 68.69990711 129.66200027 68.69990711 131.38427734 72.23510742 C131.15660578 75.34661875 130.07632735 76.34243184 127.86743164 78.43896484 C124.52807678 81.15466114 120.7635898 83.15395456 117.00927734 85.23510742 C116.09654053 85.74879883 115.18380371 86.26249023 114.2434082 86.79174805 C104.75757645 92.10247499 95.17610911 97.23871075 85.59130859 102.36791992 C79.85830999 105.43681573 74.14914404 108.54726673 68.44677734 111.67260742 C59.08708227 116.79599114 49.67616122 121.82106245 40.25494385 126.83001709 C32.8387482 130.77337683 25.43837724 134.74079803 18.07641602 138.78491211 C14.58735492 140.70091162 11.09082603 142.60285662 7.59082031 144.4987793 C6.01205909 145.35529671 4.43550031 146.21588801 2.86132812 147.08081055 C0.71202524 148.25578141 -1.44902091 149.40511773 -3.61572266 150.54760742 C-4.2194873 150.8834082 -4.82325195 151.21920898 -5.4453125 151.56518555 C-10.33973984 154.0908137 -14.45231769 154.96145202 -19.80322266 153.79760742 C-25.23135069 151.57678286 -30.33752503 148.83669424 -35.49072266 146.04760742 C-36.97560216 145.26126873 -38.46128791 144.47645073 -39.94775391 143.69311523 C-44.24674272 141.41996527 -48.52748729 139.11413952 -52.80322266 136.79760742 C-53.88555176 136.21237305 -54.96788086 135.62713867 -56.08300781 135.02416992 C-59.68686008 133.07003253 -63.28645628 131.10872505 -66.87573242 129.12792969 C-74.83248638 124.74119499 -82.89215288 120.56113928 -90.98095703 116.42358398 C-97.13019235 113.25955246 -103.12971976 109.91409583 -109.07080078 106.3737793 C-111.72893174 104.84046144 -114.42031088 103.45410913 -117.17822266 102.11010742 C-126.89463791 97.34139309 -136.33400077 92.03511058 -145.80322266 86.79760742 C-146.56715332 86.37560059 -147.33108398 85.95359375 -148.11816406 85.51879883 C-150.0796843 84.43118282 -152.03641851 83.33562527 -153.99072266 82.23510742 C-155.58980469 81.33598633 -155.58980469 81.33598633 -157.22119141 80.41870117 C-161.36752098 77.81548367 -161.36752098 77.81548367 -162.80322266 75.79760742 C-163.11108398 73.41333008 -163.11108398 73.41333008 -162.80322266 70.79760742 C-157.58759063 64.76302539 -149.49145477 61.35470177 -142.42822266 57.98510742 C-140.2855026 56.93855232 -138.14358363 55.89035557 -136.00244141 54.84057617 C-134.94976074 54.32672363 -133.89708008 53.81287109 -132.8125 53.28344727 C-128.58232079 51.19478341 -124.4068086 49.01075646 -120.24072266 46.79760742 C-119.11077881 46.19855591 -119.11077881 46.19855591 -117.95800781 45.58740234 C-116.4009092 44.76188719 -114.84394534 43.9361178 -113.28710938 43.11010742 C-107.76603726 40.19274122 -102.22296679 37.31721328 -96.68383789 34.43432617 C-92.30309992 32.15214772 -87.92575021 29.86388625 -83.55712891 27.55859375 C-72.83921351 21.90314733 -62.09352556 16.30529134 -51.31152344 10.77294922 C-48.77488864 9.47055983 -46.24023254 8.16437007 -43.70556641 6.8581543 C-39.75525468 4.82512916 -35.79289204 2.81741924 -31.82275391 0.82342529 C-30.0442773 -0.07994923 -28.28172806 -1.0145356 -26.52197266 -1.95385742 C-16.4993678 -7.05841793 -9.65848423 -5.14154688 0 0 Z " fill="#FEBA52" transform="translate(209.80322265625,17.202392578125)"/>
<path d="M0 0 C0.33 0 0.66 0 1 0 C1.02505615 1.01425049 1.0501123 2.02850098 1.07592773 3.07348633 C1.17009645 6.83631027 1.27029405 10.59895369 1.37231445 14.36157227 C1.41562749 15.99011004 1.45730518 17.61869216 1.49731445 19.24731445 C1.55510503 21.58818935 1.61877398 23.92884176 1.68359375 26.26953125 C1.70030624 26.99775589 1.71701874 27.72598053 1.73423767 28.47627258 C1.82467238 31.56166939 2.01723993 34.05171978 3 37 C2.505 37.495 2.505 37.495 2 38 C1.76712992 39.68183948 1.58735834 41.3712416 1.4375 43.0625 C1.35371094 43.98160156 1.26992187 44.90070313 1.18359375 45.84765625 C1.12300781 46.55792969 1.06242188 47.26820313 1 48 C0.67 48 0.34 48 0 48 C0 32.16 0 16.32 0 0 Z M2 30 C3 34 3 34 3 34 Z " fill="#FA9835" transform="translate(203,316)"/>
<path d="M0 0 C3.67952474 4.90603299 3.29124516 6.17509683 3 12 C2.34 12 1.68 12 1 12 C1 21.9 1 31.8 1 42 C0.67 42 0.34 42 0 42 C0 28.14 0 14.28 0 0 Z " fill="#FC9A35" transform="translate(203,217)"/>
<path d="M0 0 C1 4 1 4 1 4 Z " fill="#FDA840" transform="translate(201,221)"/>
<path d="" fill="#FAA23E" transform="translate(0,0)"/>
<path d="M0 0 C3 1 3 1 3 1 Z " fill="#E9993D" transform="translate(85,317)"/>
<path d="" fill="#FBA43D" transform="translate(0,0)"/>
<path d="" fill="#FCA540" transform="translate(0,0)"/>
<path d="" fill="#FCA640" transform="translate(0,0)"/>
<path d="" fill="#FDA740" transform="translate(0,0)"/>
<path d="M0 0 C3 1 3 1 3 1 Z " fill="#FBB34B" transform="translate(234,153)"/>
<path d="M0 0 C3 1 3 1 3 1 Z " fill="#FEB54F" transform="translate(119,135)"/>
<path d="" fill="#644421" transform="translate(0,0)"/>
<path d="" fill="#F7A33E" transform="translate(0,0)"/>
<path d="" fill="#E6953D" transform="translate(0,0)"/>
<path d="M0 0 C2 1 2 1 2 1 Z " fill="#E6973D" transform="translate(64,305)"/>
<path d="" fill="#FDA740" transform="translate(0,0)"/>
<path d="" fill="#FBA942" transform="translate(0,0)"/>
<path d="M0 0 C2 1 2 1 2 1 Z " fill="#FAAC49" transform="translate(213,178)"/>
<path d="M0 0 C2 1 2 1 2 1 Z " fill="#FCAD49" transform="translate(207,178)"/>
<path d="M0 0 C2 1 2 1 2 1 Z " fill="#FDB54B" transform="translate(219,161)"/>
<path d="M0 0 C2 1 2 1 2 1 Z " fill="#FAAF4A" transform="translate(318,122)"/>
<path d="M0 0 C2 1 2 1 2 1 Z " fill="#F9AC4C" transform="translate(333,114)"/>
<path d="M0 0 C2 1 2 1 2 1 Z " fill="#F7B44F" transform="translate(323,105)"/>
<path d="" fill="#E4A54B" transform="translate(0,0)"/>
<path d="" fill="#E8AD51" transform="translate(0,0)"/>
<path d="M0 0 C2 1 2 1 2 1 Z " fill="#E8AE51" transform="translate(133,39)"/>
<path d="" fill="#E8AE52" transform="translate(0,0)"/>
<path d="" fill="#6E4B24" transform="translate(0,0)"/>
<path d="" fill="#7B5328" transform="translate(0,0)"/>
<path d="" fill="#D98F3C" transform="translate(0,0)"/>
<path d="" fill="#DE913B" transform="translate(0,0)"/>
<path d="" fill="#DD923C" transform="translate(0,0)"/>
<path d="" fill="#DD913D" transform="translate(0,0)"/>
<path d="" fill="#DF933B" transform="translate(0,0)"/>
<path d="" fill="#E2913A" transform="translate(0,0)"/>
<path d="" fill="#855A2C" transform="translate(0,0)"/>
<path d="" fill="#E1943C" transform="translate(0,0)"/>
<path d="" fill="#8C5E2C" transform="translate(0,0)"/>
<path d="" fill="#E2953B" transform="translate(0,0)"/>
<path d="" fill="#F29C3E" transform="translate(0,0)"/>
<path d="" fill="#E4943F" transform="translate(0,0)"/>
<path d="" fill="#926430" transform="translate(0,0)"/>
<path d="" fill="#E2953C" transform="translate(0,0)"/>
<path d="" fill="#E69339" transform="translate(0,0)"/>
<path d="" fill="#E2943C" transform="translate(0,0)"/>
<path d="" fill="#F79F3E" transform="translate(0,0)"/>
<path d="" fill="#E5983B" transform="translate(0,0)"/>
<path d="" fill="#F39D3E" transform="translate(0,0)"/>
<path d="" fill="#E9993A" transform="translate(0,0)"/>
<path d="" fill="#9F6D34" transform="translate(0,0)"/>
<path d="" fill="#F59F3D" transform="translate(0,0)"/>
<path d="" fill="#F4A13D" transform="translate(0,0)"/>
<path d="" fill="#EC983B" transform="translate(0,0)"/>
<path d="" fill="#CC8538" transform="translate(0,0)"/>
<path d="" fill="#A67033" transform="translate(0,0)"/>
<path d="" fill="#FAA540" transform="translate(0,0)"/>
<path d="" fill="#EA973B" transform="translate(0,0)"/>
<path d="" fill="#F59F3E" transform="translate(0,0)"/>
<path d="" fill="#E8973A" transform="translate(0,0)"/>
<path d="" fill="#E5963C" transform="translate(0,0)"/>
<path d="" fill="#B07837" transform="translate(0,0)"/>
<path d="" fill="#F79F3E" transform="translate(0,0)"/>
<path d="" fill="#F8A43E" transform="translate(0,0)"/>
<path d="" fill="#644C2E" transform="translate(0,0)"/>
<path d="" fill="#EA983C" transform="translate(0,0)"/>
<path d="" fill="#E8983D" transform="translate(0,0)"/>
<path d="" fill="#E7973D" transform="translate(0,0)"/>
<path d="" fill="#F9A440" transform="translate(0,0)"/>
<path d="" fill="#EB9B3C" transform="translate(0,0)"/>
<path d="" fill="#F8A03F" transform="translate(0,0)"/>
<path d="" fill="#EC973C" transform="translate(0,0)"/>
<path d="" fill="#BE823C" transform="translate(0,0)"/>
<path d="" fill="#EB983B" transform="translate(0,0)"/>
<path d="" fill="#FAA13E" transform="translate(0,0)"/>
<path d="" fill="#E7983E" transform="translate(0,0)"/>
<path d="" fill="#FAA540" transform="translate(0,0)"/>
<path d="" fill="#E9973F" transform="translate(0,0)"/>
<path d="" fill="#CE8C3F" transform="translate(0,0)"/>
<path d="" fill="#EE9A3D" transform="translate(0,0)"/>
<path d="" fill="#F6A63D" transform="translate(0,0)"/>
<path d="" fill="#D89340" transform="translate(0,0)"/>
<path d="" fill="#ED9A3C" transform="translate(0,0)"/>
<path d="" fill="#D6923E" transform="translate(0,0)"/>
<path d="" fill="#EF993D" transform="translate(0,0)"/>
<path d="" fill="#DF9540" transform="translate(0,0)"/>
<path d="" fill="#FBA63F" transform="translate(0,0)"/>
<path d="" fill="#FAA53E" transform="translate(0,0)"/>
<path d="" fill="#EA9A3F" transform="translate(0,0)"/>
<path d="" fill="#E39841" transform="translate(0,0)"/>
<path d="" fill="#E89A41" transform="translate(0,0)"/>
<path d="" fill="#E49740" transform="translate(0,0)"/>
<path d="" fill="#E89840" transform="translate(0,0)"/>
<path d="" fill="#E79A42" transform="translate(0,0)"/>
<path d="" fill="#E59741" transform="translate(0,0)"/>
<path d="" fill="#FBA641" transform="translate(0,0)"/>
<path d="" fill="#FEA63F" transform="translate(0,0)"/>
<path d="" fill="#E5953C" transform="translate(0,0)"/>
<path d="" fill="#FBA43D" transform="translate(0,0)"/>
<path d="" fill="#E6963D" transform="translate(0,0)"/>
<path d="" fill="#E1973D" transform="translate(0,0)"/>
<path d="" fill="#E9983D" transform="translate(0,0)"/>
<path d="" fill="#E2963D" transform="translate(0,0)"/>
<path d="" fill="#FCA33D" transform="translate(0,0)"/>
<path d="" fill="#FFA740" transform="translate(0,0)"/>
<path d="" fill="#FEA63F" transform="translate(0,0)"/>
<path d="" fill="#FCA43E" transform="translate(0,0)"/>
<path d="" fill="#E4963C" transform="translate(0,0)"/>
<path d="" fill="#E8963C" transform="translate(0,0)"/>
<path d="" fill="#FCA43D" transform="translate(0,0)"/>
<path d="" fill="#E6973C" transform="translate(0,0)"/>
<path d="" fill="#DD913B" transform="translate(0,0)"/>
<path d="" fill="#FCA741" transform="translate(0,0)"/>
<path d="" fill="#FEA440" transform="translate(0,0)"/>
<path d="" fill="#FCA43E" transform="translate(0,0)"/>
<path d="" fill="#FDA840" transform="translate(0,0)"/>
<path d="" fill="#FDA540" transform="translate(0,0)"/>
<path d="" fill="#FFA840" transform="translate(0,0)"/>
<path d="" fill="#E5973E" transform="translate(0,0)"/>
<path d="" fill="#FDA73F" transform="translate(0,0)"/>
<path d="" fill="#FCA63F" transform="translate(0,0)"/>
<path d="" fill="#E8983E" transform="translate(0,0)"/>
<path d="" fill="#FEA842" transform="translate(0,0)"/>
<path d="" fill="#E7973D" transform="translate(0,0)"/>
<path d="" fill="#FCA742" transform="translate(0,0)"/>
<path d="" fill="#FDAA43" transform="translate(0,0)"/>
<path d="" fill="#E7973C" transform="translate(0,0)"/>
<path d="" fill="#FFAA42" transform="translate(0,0)"/>
<path d="" fill="#E9983F" transform="translate(0,0)"/>
<path d="" fill="#EB9A3F" transform="translate(0,0)"/>
<path d="" fill="#F9AA41" transform="translate(0,0)"/>
<path d="" fill="#FCA742" transform="translate(0,0)"/>
<path d="" fill="#FEA742" transform="translate(0,0)"/>
<path d="" fill="#FDA841" transform="translate(0,0)"/>
<path d="" fill="#EC9A3E" transform="translate(0,0)"/>
<path d="" fill="#FDAA43" transform="translate(0,0)"/>
<path d="" fill="#FCA843" transform="translate(0,0)"/>
<path d="" fill="#FAA943" transform="translate(0,0)"/>
<path d="" fill="#FCA943" transform="translate(0,0)"/>
<path d="" fill="#EC9B3F" transform="translate(0,0)"/>
<path d="" fill="#FCA944" transform="translate(0,0)"/>
<path d="" fill="#FEA944" transform="translate(0,0)"/>
<path d="" fill="#FAAA42" transform="translate(0,0)"/>
<path d="" fill="#EC9B40" transform="translate(0,0)"/>
<path d="" fill="#FCA944" transform="translate(0,0)"/>
<path d="" fill="#C58D47" transform="translate(0,0)"/>
<path d="" fill="#FDAB47" transform="translate(0,0)"/>
<path d="" fill="#FCAA47" transform="translate(0,0)"/>
<path d="" fill="#EB9C40" transform="translate(0,0)"/>
<path d="" fill="#FDAE46" transform="translate(0,0)"/>
<path d="" fill="#FEAD48" transform="translate(0,0)"/>
<path d="" fill="#EB9D40" transform="translate(0,0)"/>
<path d="" fill="#FBB54F" transform="translate(0,0)"/>
<path d="" fill="#FAAE48" transform="translate(0,0)"/>
<path d="" fill="#FFAE48" transform="translate(0,0)"/>
<path d="" fill="#FEB04A" transform="translate(0,0)"/>
<path d="" fill="#FAAA46" transform="translate(0,0)"/>
<path d="" fill="#FEAE48" transform="translate(0,0)"/>
<path d="" fill="#FCB148" transform="translate(0,0)"/>
<path d="" fill="#FBB24D" transform="translate(0,0)"/>
<path d="" fill="#FFB54D" transform="translate(0,0)"/>
<path d="" fill="#EE9C40" transform="translate(0,0)"/>
<path d="" fill="#C68D46" transform="translate(0,0)"/>
<path d="" fill="#FDAE48" transform="translate(0,0)"/>
<path d="" fill="#FBAD4B" transform="translate(0,0)"/>
<path d="" fill="#EE9C40" transform="translate(0,0)"/>
<path d="" fill="#F9AD4A" transform="translate(0,0)"/>
<path d="" fill="#FCB54E" transform="translate(0,0)"/>
<path d="" fill="#FDB24B" transform="translate(0,0)"/>
<path d="" fill="#FEB34D" transform="translate(0,0)"/>
<path d="" fill="#FBAC47" transform="translate(0,0)"/>
<path d="" fill="#FDB34F" transform="translate(0,0)"/>
<path d="" fill="#EE9F41" transform="translate(0,0)"/>
<path d="" fill="#FAAD49" transform="translate(0,0)"/>
<path d="" fill="#FCAE48" transform="translate(0,0)"/>
<path d="" fill="#F8AC4A" transform="translate(0,0)"/>
<path d="" fill="#ED9C3F" transform="translate(0,0)"/>
<path d="" fill="#FAAD48" transform="translate(0,0)"/>
<path d="" fill="#F9AE4B" transform="translate(0,0)"/>
<path d="" fill="#FEB44C" transform="translate(0,0)"/>
<path d="" fill="#EC9D40" transform="translate(0,0)"/>
<path d="" fill="#F8AD49" transform="translate(0,0)"/>
<path d="" fill="#FDB54E" transform="translate(0,0)"/>
<path d="" fill="#FDB54E" transform="translate(0,0)"/>
<path d="" fill="#FCAF48" transform="translate(0,0)"/>
<path d="" fill="#FEB149" transform="translate(0,0)"/>
<path d="" fill="#FCB54D" transform="translate(0,0)"/>
<path d="" fill="#E99C3F" transform="translate(0,0)"/>
<path d="" fill="#FBB047" transform="translate(0,0)"/>
<path d="" fill="#FCAE49" transform="translate(0,0)"/>
<path d="" fill="#FDAE49" transform="translate(0,0)"/>
<path d="" fill="#F7AB49" transform="translate(0,0)"/>
<path d="" fill="#FAB34E" transform="translate(0,0)"/>
<path d="" fill="#FEB44F" transform="translate(0,0)"/>
<path d="" fill="#FCAD47" transform="translate(0,0)"/>
<path d="" fill="#FBAE49" transform="translate(0,0)"/>
<path d="" fill="#FEB451" transform="translate(0,0)"/>
<path d="" fill="#FBB04B" transform="translate(0,0)"/>
<path d="" fill="#FBB049" transform="translate(0,0)"/>
<path d="" fill="#FBB04B" transform="translate(0,0)"/>
<path d="" fill="#FCB54E" transform="translate(0,0)"/>
<path d="" fill="#FCB451" transform="translate(0,0)"/>
<path d="" fill="#FBB550" transform="translate(0,0)"/>
<path d="" fill="#F9B14F" transform="translate(0,0)"/>
<path d="" fill="#FCB44E" transform="translate(0,0)"/>
<path d="" fill="#FEB54E" transform="translate(0,0)"/>
<path d="" fill="#FCB54E" transform="translate(0,0)"/>
<path d="" fill="#FFB34F" transform="translate(0,0)"/>
<path d="" fill="#FFB54D" transform="translate(0,0)"/>
<path d="" fill="#F8AF4C" transform="translate(0,0)"/>
<path d="" fill="#F7B049" transform="translate(0,0)"/>
<path d="" fill="#FDB751" transform="translate(0,0)"/>
<path d="" fill="#F9B551" transform="translate(0,0)"/>
<path d="" fill="#F8B351" transform="translate(0,0)"/>
<path d="" fill="#F6B64F" transform="translate(0,0)"/>
<path d="" fill="#F1AD4E" transform="translate(0,0)"/>
<path d="" fill="#F2AE4F" transform="translate(0,0)"/>
<path d="" fill="#D99A4C" transform="translate(0,0)"/>
<path d="" fill="#F5B04F" transform="translate(0,0)"/>
<path d="" fill="#F3B04E" transform="translate(0,0)"/>
<path d="" fill="#EDAC4C" transform="translate(0,0)"/>
<path d="" fill="#E9A74E" transform="translate(0,0)"/>
<path d="" fill="#947748" transform="translate(0,0)"/>
<path d="" fill="#E3AA52" transform="translate(0,0)"/>
<path d="" fill="#DAA24F" transform="translate(0,0)"/>
<path d="" fill="#E8AE51" transform="translate(0,0)"/>
<path d="" fill="#EBB052" transform="translate(0,0)"/>
<path d="" fill="#DDA652" transform="translate(0,0)"/>
<path d="" fill="#EAAD53" transform="translate(0,0)"/>
<path d="" fill="#7C6740" transform="translate(0,0)"/>
<path d="" fill="#ECAF51" transform="translate(0,0)"/>
<path d="" fill="#D6A352" transform="translate(0,0)"/>
<path d="" fill="#D29E4F" transform="translate(0,0)"/>
<path d="" fill="#E6AE53" transform="translate(0,0)"/>
<path d="" fill="#E5A950" transform="translate(0,0)"/>
<path d="" fill="#CF9C50" transform="translate(0,0)"/>
<path d="" fill="#E9AD50" transform="translate(0,0)"/>
<path d="" fill="#E9AC51" transform="translate(0,0)"/>
<path d="" fill="#EBAF51" transform="translate(0,0)"/>
<path d="" fill="#C0934C" transform="translate(0,0)"/>
<path d="" fill="#C3944B" transform="translate(0,0)"/>
<path d="" fill="#EDAF52" transform="translate(0,0)"/>
<path d="" fill="#EAAF50" transform="translate(0,0)"/>
<path d="" fill="#B38A49" transform="translate(0,0)"/>
<path d="" fill="#E4AA50" transform="translate(0,0)"/>
<path d="" fill="#E3A850" transform="translate(0,0)"/>
<path d="" fill="#EBAF51" transform="translate(0,0)"/>
<path d="" fill="#A67F43" transform="translate(0,0)"/>
<path d="" fill="#5E4D31" transform="translate(0,0)"/>
<path d="" fill="#A58043" transform="translate(0,0)"/>
<path d="" fill="#E3AC50" transform="translate(0,0)"/>
<path d="" fill="#E8AC50" transform="translate(0,0)"/>
<path d="" fill="#9A7640" transform="translate(0,0)"/>
<path d="" fill="#E0A650" transform="translate(0,0)"/>
<path d="" fill="#9A793E" transform="translate(0,0)"/>
<path d="" fill="#E7AC51" transform="translate(0,0)"/>
<path d="" fill="#E9AA4F" transform="translate(0,0)"/>
<path d="" fill="#8E6D3B" transform="translate(0,0)"/>
<path d="" fill="#826437" transform="translate(0,0)"/>
</svg>
