<?xml version="1.0" encoding="UTF-8"?>
<!DOCTYPE svg PUBLIC "-//W3C//DTD SVG 1.1//EN" "http://www.w3.org/Graphics/SVG/1.1/DTD/svg11.dtd">
<svg xmlns="http://www.w3.org/2000/svg" version="1.1" width="16px" height="16px" style="shape-rendering:geometricPrecision; text-rendering:geometricPrecision; image-rendering:optimizeQuality; fill-rule:evenodd; clip-rule:evenodd" xmlns:xlink="http://www.w3.org/1999/xlink">
<g><path style="opacity:0.22" fill="#fff8de" d="M 9.5,0.5 C 10.9587,0.432553 12.2921,0.765886 13.5,1.5C 13.5,1.83333 13.5,2.16667 13.5,2.5C 13.1667,2.5 12.8333,2.5 12.5,2.5C 12.1667,2.5 11.8333,2.5 11.5,2.5C 10.8333,1.83333 10.1667,1.16667 9.5,0.5 Z"/></g>
<g><path style="opacity:1" fill="#f0b968" d="M 5.5,1.5 C 5.5,1.83333 5.5,2.16667 5.5,2.5C 4.49367,2.93767 4.49367,3.60433 5.5,4.5C 5.16667,4.5 4.83333,4.5 4.5,4.5C 3.66175,4.15829 3.32842,3.49162 3.5,2.5C 3.84171,1.66175 4.50838,1.32842 5.5,1.5 Z"/></g>
<g><path style="opacity:1" fill="#ecbc6a" d="M 9.5,0.5 C 10.1667,1.16667 10.8333,1.83333 11.5,2.5C 11.5,3.83333 10.8333,4.5 9.5,4.5C 10.6602,2.79734 9.99349,2.13068 7.5,2.5C 6.83333,2.5 6.16667,2.5 5.5,2.5C 5.5,2.16667 5.5,1.83333 5.5,1.5C 6.56764,0.565525 7.90097,0.232191 9.5,0.5 Z"/></g>
<g><path style="opacity:1" fill="#fcb452" d="M 5.5,2.5 C 6.16667,2.5 6.83333,2.5 7.5,2.5C 7.83333,3.5 8.5,4.16667 9.5,4.5C 8.79105,5.40397 7.79105,5.73731 6.5,5.5C 5.83333,5.5 5.5,5.16667 5.5,4.5C 4.49367,3.60433 4.49367,2.93767 5.5,2.5 Z"/></g>
<g><path style="opacity:1" fill="#feb854" d="M 7.5,2.5 C 9.99349,2.13068 10.6602,2.79734 9.5,4.5C 8.5,4.16667 7.83333,3.5 7.5,2.5 Z"/></g>
<g><path style="opacity:1" fill="#fffee7" d="M 13.5,1.5 C 14.1667,1.83333 14.8333,2.16667 15.5,2.5C 15.5,2.83333 15.5,3.16667 15.5,3.5C 15.1667,3.5 14.8333,3.5 14.5,3.5C 13.8333,3.5 13.5,3.16667 13.5,2.5C 13.5,2.16667 13.5,1.83333 13.5,1.5 Z"/></g>
<g><path style="opacity:1" fill="#f6d8aa" d="M 12.5,2.5 C 12.8333,2.5 13.1667,2.5 13.5,2.5C 13.5,3.16667 13.8333,3.5 14.5,3.5C 14.8064,6.38544 14.4731,9.0521 13.5,11.5C 13.8016,8.9407 13.4682,6.60737 12.5,4.5C 12.5,3.83333 12.5,3.16667 12.5,2.5 Z"/></g>
<g><path style="opacity:1" fill="#f7d596" d="M 3.5,2.5 C 3.32842,3.49162 3.66175,4.15829 4.5,4.5C 4.5,4.83333 4.5,5.16667 4.5,5.5C 3.83333,5.5 3.16667,5.5 2.5,5.5C 2.15829,4.66175 1.49162,4.32842 0.5,4.5C 0.973056,3.09368 1.97306,2.42702 3.5,2.5 Z"/></g>
<g><path style="opacity:1" fill="#e4b582" d="M 0.5,4.5 C 1.49162,4.32842 2.15829,4.66175 2.5,5.5C 1.66175,5.84171 1.32842,6.50838 1.5,7.5C 1.5,8.83333 1.5,10.1667 1.5,11.5C 1.16667,11.5 0.833333,11.5 0.5,11.5C 0.5,9.16667 0.5,6.83333 0.5,4.5 Z"/></g>
<g><path style="opacity:1" fill="#ffd88d" d="M 4.5,4.5 C 4.83333,4.5 5.16667,4.5 5.5,4.5C 5.5,5.16667 5.83333,5.5 6.5,5.5C 6.5,5.83333 6.5,6.16667 6.5,6.5C 5.83333,6.5 5.16667,6.5 4.5,6.5C 4.5,6.16667 4.5,5.83333 4.5,5.5C 4.5,5.16667 4.5,4.83333 4.5,4.5 Z"/></g>
<g><path style="opacity:1" fill="#fcd38d" d="M 11.5,2.5 C 11.8333,2.5 12.1667,2.5 12.5,2.5C 12.5,3.16667 12.5,3.83333 12.5,4.5C 11.8333,5.16667 11.1667,5.83333 10.5,6.5C 9.50838,6.32842 8.84171,6.66175 8.5,7.5C 7.83333,7.5 7.16667,7.5 6.5,7.5C 6.5,7.16667 6.5,6.83333 6.5,6.5C 6.5,6.16667 6.5,5.83333 6.5,5.5C 7.79105,5.73731 8.79105,5.40397 9.5,4.5C 10.8333,4.5 11.5,3.83333 11.5,2.5 Z"/></g>
<g><path style="opacity:1" fill="#ed9c49" d="M 2.5,5.5 C 3.16667,5.5 3.83333,5.5 4.5,5.5C 4.5,5.83333 4.5,6.16667 4.5,6.5C 4.16667,6.5 3.83333,6.5 3.5,6.5C 2.83333,6.5 2.5,6.83333 2.5,7.5C 2.16667,7.5 1.83333,7.5 1.5,7.5C 1.32842,6.50838 1.66175,5.84171 2.5,5.5 Z"/></g>
<g><path style="opacity:1" fill="#fda447" d="M 3.5,6.5 C 3.83333,6.5 4.16667,6.5 4.5,6.5C 5.10978,7.39105 5.44312,8.39105 5.5,9.5C 5.16667,9.5 4.83333,9.5 4.5,9.5C 3.89022,8.60895 3.55688,7.60895 3.5,6.5 Z"/></g>
<g><path style="opacity:1" fill="#f39f48" d="M 12.5,4.5 C 13.4682,6.60737 13.8016,8.9407 13.5,11.5C 13.1667,11.5 12.8333,11.5 12.5,11.5C 12.5,11.1667 12.5,10.8333 12.5,10.5C 12.8693,8.00651 12.2027,7.33985 10.5,8.5C 10.5,7.83333 10.5,7.16667 10.5,6.5C 11.1667,5.83333 11.8333,5.16667 12.5,4.5 Z"/></g>
<g><path style="opacity:1" fill="#efa049" d="M 1.5,7.5 C 1.83333,7.5 2.16667,7.5 2.5,7.5C 2.26269,8.79105 2.59603,9.79105 3.5,10.5C 3.83333,11.1667 4.16667,11.8333 4.5,12.5C 4.16667,12.5 3.83333,12.5 3.5,12.5C 2.83333,12.1667 2.16667,11.8333 1.5,11.5C 1.5,10.1667 1.5,8.83333 1.5,7.5 Z"/></g>
<g><path style="opacity:1" fill="#fda136" d="M 3.5,6.5 C 3.55688,7.60895 3.89022,8.60895 4.5,9.5C 4.5,10.1667 4.16667,10.5 3.5,10.5C 2.59603,9.79105 2.26269,8.79105 2.5,7.5C 2.5,6.83333 2.83333,6.5 3.5,6.5 Z"/></g>
<g><path style="opacity:1" fill="#eda355" d="M 4.5,6.5 C 5.16667,6.5 5.83333,6.5 6.5,6.5C 6.5,6.83333 6.5,7.16667 6.5,7.5C 6.5,8.16667 6.5,8.83333 6.5,9.5C 6.5,10.8333 6.5,12.1667 6.5,13.5C 5.5,13.5 4.5,13.5 3.5,13.5C 3.5,13.1667 3.5,12.8333 3.5,12.5C 3.83333,12.5 4.16667,12.5 4.5,12.5C 5.40397,11.791 5.73731,10.791 5.5,9.5C 5.44312,8.39105 5.10978,7.39105 4.5,6.5 Z"/></g>
<g><path style="opacity:1" fill="#ffbf6b" d="M 6.5,7.5 C 7.16667,7.5 7.83333,7.5 8.5,7.5C 8.5,8.16667 8.5,8.83333 8.5,9.5C 7.83333,9.5 7.16667,9.5 6.5,9.5C 6.5,8.83333 6.5,8.16667 6.5,7.5 Z"/></g>
<g><path style="opacity:1" fill="#f1a24f" d="M 10.5,6.5 C 10.5,7.16667 10.5,7.83333 10.5,8.5C 9.59603,9.20895 9.26269,10.209 9.5,11.5C 9.16667,11.5 8.83333,11.5 8.5,11.5C 8.5,10.8333 8.5,10.1667 8.5,9.5C 8.5,8.83333 8.5,8.16667 8.5,7.5C 8.84171,6.66175 9.50838,6.32842 10.5,6.5 Z"/></g>
<g><path style="opacity:1" fill="#fda138" d="M 12.5,10.5 C 11.1667,10.5 10.5,9.83333 10.5,8.5C 12.2027,7.33985 12.8693,8.00651 12.5,10.5 Z"/></g>
<g><path style="opacity:1" fill="#f7a442" d="M 4.5,9.5 C 4.83333,9.5 5.16667,9.5 5.5,9.5C 5.73731,10.791 5.40397,11.791 4.5,12.5C 4.16667,11.8333 3.83333,11.1667 3.5,10.5C 4.16667,10.5 4.5,10.1667 4.5,9.5 Z"/></g>
<g><path style="opacity:1" fill="#ffbe73" d="M 6.5,9.5 C 7.16667,9.5 7.83333,9.5 8.5,9.5C 8.5,10.1667 8.5,10.8333 8.5,11.5C 8.5,12.1667 8.5,12.8333 8.5,13.5C 7.83333,13.5 7.16667,13.5 6.5,13.5C 6.5,12.1667 6.5,10.8333 6.5,9.5 Z"/></g>
<g><path style="opacity:1" fill="#f5a342" d="M 10.5,8.5 C 10.5,9.83333 11.1667,10.5 12.5,10.5C 12.5,10.8333 12.5,11.1667 12.5,11.5C 11.5,11.5 10.5,11.5 9.5,11.5C 9.26269,10.209 9.59603,9.20895 10.5,8.5 Z"/></g>
<g><path style="opacity:0.38" fill="#fff2da" d="M 0.5,11.5 C 0.833333,11.5 1.16667,11.5 1.5,11.5C 2.16667,11.8333 2.83333,12.1667 3.5,12.5C 3.5,12.8333 3.5,13.1667 3.5,13.5C 1.97306,13.573 0.973056,12.9063 0.5,11.5 Z"/></g>
<g><path style="opacity:1" fill="#efa253" d="M 8.5,11.5 C 8.83333,11.5 9.16667,11.5 9.5,11.5C 10.5,11.5 11.5,11.5 12.5,11.5C 11.4863,12.6737 10.153,13.3404 8.5,13.5C 8.5,12.8333 8.5,12.1667 8.5,11.5 Z"/></g>
<g><path style="opacity:1" fill="#fceed0" d="M 14.5,3.5 C 14.8333,3.5 15.1667,3.5 15.5,3.5C 15.5,6.5 15.5,9.5 15.5,12.5C 11.5054,14.5048 7.50537,14.8382 3.5,13.5C 4.5,13.5 5.5,13.5 6.5,13.5C 7.16667,13.5 7.83333,13.5 8.5,13.5C 10.153,13.3404 11.4863,12.6737 12.5,11.5C 12.8333,11.5 13.1667,11.5 13.5,11.5C 14.4731,9.0521 14.8064,6.38544 14.5,3.5 Z"/></g>
</svg>
