<?xml version="1.0" encoding="UTF-8"?>
<!DOCTYPE svg PUBLIC "-//W3C//DTD SVG 1.1//EN" "http://www.w3.org/Graphics/SVG/1.1/DTD/svg11.dtd">
<svg xmlns="http://www.w3.org/2000/svg" version="1.1" width="392px" height="392px" style="shape-rendering:geometricPrecision; text-rendering:geometricPrecision; image-rendering:optimizeQuality; fill-rule:evenodd; clip-rule:evenodd" xmlns:xlink="http://www.w3.org/1999/xlink">
<g><path style="opacity:0.008" fill="#816436" d="M 307.5,6.5 C 308.833,7.16667 308.833,7.16667 307.5,6.5 Z"/></g>
<g><path style="opacity:0.962" fill="#f3b14f" d="M 205.5,16.5 C 199.835,13.8564 193.835,12.8564 187.5,13.5C 191.598,11.0451 195.932,10.8784 200.5,13C 202.584,13.6972 204.251,14.8639 205.5,16.5 Z"/></g>
<g><path style="opacity:0.996" fill="#feba53" d="M 187.5,13.5 C 193.835,12.8564 199.835,13.8564 205.5,16.5C 231.141,28.9824 256.141,41.8157 280.5,55C 283.071,56.4538 285.738,57.6205 288.5,58.5C 304.452,67.8134 320.786,76.6467 337.5,85C 339.01,86.3513 340.01,88.018 340.5,90C 339.233,92.9356 337.233,95.269 334.5,97C 318.943,105.274 303.61,113.774 288.5,122.5C 282.036,125.566 275.702,128.899 269.5,132.5C 267.554,129.441 265.387,129.108 263,131.5C 262.174,129.595 261.007,129.261 259.5,130.5C 260.441,130.489 261.108,130.989 261.5,132C 259.353,138.42 255.686,139.587 250.5,135.5C 248.763,138.35 246.929,138.684 245,136.5C 244.383,137.449 244.549,138.282 245.5,139C 243.009,139.626 243.009,140.459 245.5,141.5C 244.201,145.397 241.701,146.731 238,145.5C 237.641,148.544 236.974,148.878 236,146.5C 235,146.833 234,147.167 233,147.5C 232.549,145.071 231.715,144.904 230.5,147C 231.634,148.016 231.301,148.683 229.5,149C 230.328,149.915 231.328,150.581 232.5,151C 230.038,152.836 228.538,152.003 228,148.5C 226.23,149.276 224.397,149.11 222.5,148C 224.483,146.111 226.816,144.778 229.5,144C 228.888,142.697 228.554,141.53 228.5,140.5C 227.757,141.908 226.923,143.241 226,144.5C 224.68,142.417 223.346,142.751 222,145.5C 219.613,148.564 220.113,151.064 223.5,153C 223.272,153.399 222.938,153.565 222.5,153.5C 221.504,153.586 220.671,153.252 220,152.5C 219.834,154.532 218.667,156.365 216.5,158C 216.833,158.333 217.167,158.667 217.5,159C 215.975,160.009 214.308,160.509 212.5,160.5C 211.883,160.389 211.383,160.056 211,159.5C 207.998,161.171 204.831,162.004 201.5,162C 204.492,160.893 205.159,159.226 203.5,157C 204.167,156.667 204.833,156.333 205.5,156C 204.845,154.513 203.845,153.347 202.5,152.5C 202.693,153.688 202.193,155.022 201,156.5C 199.214,155.213 199.047,153.713 200.5,152C 200.22,150.605 199.553,149.438 198.5,148.5C 198.346,149.909 198.179,151.576 198,153.5C 197.086,152.346 196.253,152.513 195.5,154C 196.815,155.395 196.481,156.395 194.5,157C 195.876,159.543 197.043,159.709 198,157.5C 198.667,158.833 198.667,160.167 198,161.5C 196.043,162.852 193.376,162.852 190,161.5C 188.716,162.572 188.383,163.905 189,165.5C 188,164.167 187,164.167 186,165.5C 183.808,163.637 181.642,161.804 179.5,160C 180.554,158.612 180.72,157.112 180,155.5C 179.346,156.696 178.846,156.696 178.5,155.5C 179.025,154.808 179.692,154.308 180.5,154C 179,153.5 177.5,153 176,152.5C 173.627,154.209 171.294,155.209 169,155.5C 167.288,151.842 165.122,151.175 162.5,153.5C 158.657,152.35 154.99,150.683 151.5,148.5C 150.893,148.624 150.56,148.957 150.5,149.5C 149.833,149.5 149.5,149.167 149.5,148.5C 145.397,144.939 140.73,142.106 135.5,140C 133.8,137.6 132.467,134.934 131.5,132C 129.874,132.195 128.207,132.195 126.5,132C 124.862,130.201 123.029,129.035 121,128.5C 118.399,129.726 117.565,129.06 118.5,126.5C 116.988,125.138 115.488,124.804 114,125.5C 112.641,124.635 111.474,123.635 110.5,122.5C 110.611,120.352 109.944,120.019 108.5,121.5C 107.5,121.167 106.833,120.5 106.5,119.5C 107.529,119.704 108.529,119.204 109.5,118C 108.552,117.517 107.552,117.351 106.5,117.5C 106.688,115.897 106.188,114.563 105,113.5C 102.942,114.109 102.109,115.109 102.5,116.5C 100.627,112.021 98.46,111.688 96,115.5C 95.6667,114.5 95.3333,113.5 95,112.5C 94,113.833 93,113.833 92,112.5C 91.6667,113.5 91.3333,114.5 91,115.5C 90.6905,114.234 90.1905,113.067 89.5,112C 90.4706,110.796 91.4706,110.296 92.5,110.5C 90.1631,109.488 87.8297,109.655 85.5,111C 86.6956,111.654 86.6956,112.154 85.5,112.5C 84.4096,111.273 83.0762,110.44 81.5,110C 82.8333,109.333 84.1667,108.667 85.5,108C 84.7169,103.723 83.2169,103.556 81,107.5C 77.9603,103.57 75.627,99.9029 74,96.5C 73.5172,97.448 73.3505,98.448 73.5,99.5C 70.7097,99.7776 68.2097,99.1109 66,97.5C 64.2382,97.9444 64.4049,98.4444 66.5,99C 61.9608,101.403 59.7941,100.236 60,95.5C 59.0975,96.7014 57.9308,97.5348 56.5,98C 57.056,98.3826 57.3893,98.8826 57.5,99.5C 54.8599,98.1799 52.1932,96.8466 49.5,95.5C 45.5654,91.996 45.5654,88.496 49.5,85C 74.5934,71.4569 99.5934,57.9569 124.5,44.5C 128.151,43.3411 131.485,41.6744 134.5,39.5C 138.151,38.3411 141.485,36.6744 144.5,34.5C 158.68,27.2437 173.013,20.2437 187.5,13.5 Z"/></g>
<g><path style="opacity:0.004" fill="#8d6d3a" d="M 307.5,14.5 C 308.833,15.1667 308.833,15.1667 307.5,14.5 Z"/></g>
<g><path style="opacity:0.012" fill="#e8aa4e" d="M 173.5,17.5 C 174.833,18.1667 174.833,18.1667 173.5,17.5 Z"/></g>
<g><path style="opacity:0.004" fill="#e6ac50" d="M 164.5,20.5 C 165.833,21.1667 165.833,21.1667 164.5,20.5 Z"/></g>
<g><path style="opacity:0.004" fill="#99793d" d="M 302.5,20.5 C 303.833,21.1667 303.833,21.1667 302.5,20.5 Z"/></g>
<g><path style="opacity:0.004" fill="#dfa64f" d="M 157.5,22.5 C 158.833,23.1667 158.833,23.1667 157.5,22.5 Z"/></g>
<g><path style="opacity:0.008" fill="#99763f" d="M 307.5,22.5 C 308.833,23.1667 308.833,23.1667 307.5,22.5 Z"/></g>
<g><path style="opacity:0.008" fill="#e7ac4f" d="M 157.5,25.5 C 158.833,26.1667 158.833,26.1667 157.5,25.5 Z"/></g>
<g><path style="opacity:0.004" fill="#e2ac4f" d="M 235.5,27.5 C 236.833,28.1667 236.833,28.1667 235.5,27.5 Z"/></g>
<g><path style="opacity:0.004" fill="#a48042" d="M 302.5,28.5 C 303.833,29.1667 303.833,29.1667 302.5,28.5 Z"/></g>
<g><path style="opacity:0.004" fill="#5d4d30" d="M 374.5,28.5 C 375.833,29.1667 375.833,29.1667 374.5,28.5 Z"/></g>
<g><path style="opacity:0.004" fill="#e8ad51" d="M 148.5,28.5 C 149.525,28.8966 149.692,29.5632 149,30.5C 148.536,29.9056 148.369,29.2389 148.5,28.5 Z"/></g>
<g><path style="opacity:0.008" fill="#a57f42" d="M 307.5,30.5 C 308.833,31.1667 308.833,31.1667 307.5,30.5 Z"/></g>
<g><path style="opacity:0.004" fill="#eaaf50" d="M 144.5,34.5 C 143.833,33.1667 143.833,33.1667 144.5,34.5 Z"/></g>
<g><path style="opacity:0.004" fill="#e2a84f" d="M 131.5,35.5 C 132.833,36.1667 132.833,36.1667 131.5,35.5 Z"/></g>
<g><path style="opacity:0.004" fill="#e3aa4f" d="M 133.5,35.5 C 134.833,36.1667 134.833,36.1667 133.5,35.5 Z"/></g>
<g><path style="opacity:0.012" fill="#e8af51" d="M 134.5,39.5 C 133.761,39.631 133.094,39.4643 132.5,39C 133.437,38.3083 134.103,38.475 134.5,39.5 Z"/></g>
<g><path style="opacity:0.012" fill="#b28a48" d="M 307.5,38.5 C 308.833,39.1667 308.833,39.1667 307.5,38.5 Z"/></g>
<g><path style="opacity:0.004" fill="#e9af4f" d="M 124.5,44.5 C 123.833,43.1667 123.833,43.1667 124.5,44.5 Z"/></g>
<g><path style="opacity:0.004" fill="#ecaf51" d="M 264.5,44.5 C 265.833,45.1667 265.833,45.1667 264.5,44.5 Z"/></g>
<g><path style="opacity:0.004" fill="#c2944a" d="M 302.5,44.5 C 303.833,45.1667 303.833,45.1667 302.5,44.5 Z"/></g>
<g><path style="opacity:0.004" fill="#bf934b" d="M 307.5,46.5 C 308.833,47.1667 308.833,47.1667 307.5,46.5 Z"/></g>
<g><path style="opacity:0.004" fill="#eaaf50" d="M 111.5,49.5 C 112.833,50.1667 112.833,50.1667 111.5,49.5 Z"/></g>
<g><path style="opacity:0.004" fill="#e8ae51" d="M 109.5,49.5 C 110.525,49.8966 110.692,50.5632 110,51.5C 109.536,50.9056 109.369,50.2389 109.5,49.5 Z"/></g>
<g><path style="opacity:0.004" fill="#e8ac50" d="M 276.5,50.5 C 277.833,51.1667 277.833,51.1667 276.5,50.5 Z"/></g>
<g><path style="opacity:0.012" fill="#ce9c4f" d="M 307.5,54.5 C 308.833,55.1667 308.833,55.1667 307.5,54.5 Z"/></g>
<g><path style="opacity:0.004" fill="#e4a94f" d="M 90.5,56.5 C 91.8333,57.1667 91.8333,57.1667 90.5,56.5 Z"/></g>
<g><path style="opacity:0.012" fill="#e5ae52" d="M 288.5,57.5 C 289.833,58.1667 289.833,58.1667 288.5,57.5 Z"/></g>
<g><path style="opacity:0.004" fill="#d19e4e" d="M 307.5,57.5 C 308.833,58.1667 308.833,58.1667 307.5,57.5 Z"/></g>
<g><path style="opacity:0.004" fill="#d5a351" d="M 305.5,58.5 C 306.833,59.1667 306.833,59.1667 305.5,58.5 Z"/></g>
<g><path style="opacity:0.004" fill="#ebaf50" d="M 294.5,60.5 C 295.833,61.1667 295.833,61.1667 294.5,60.5 Z"/></g>
<g><path style="opacity:0.004" fill="#7b673f" d="M 374.5,60.5 C 375.833,61.1667 375.833,61.1667 374.5,60.5 Z"/></g>
<g><path style="opacity:0.004" fill="#e9ad52" d="M 84.5,62.5 C 85.8333,63.1667 85.8333,63.1667 84.5,62.5 Z"/></g>
<g><path style="opacity:0.008" fill="#dca651" d="M 307.5,62.5 C 308.833,63.1667 308.833,63.1667 307.5,62.5 Z"/></g>
<g><path style="opacity:0.008" fill="#eab051" d="M 310.5,68.5 C 311.833,69.1667 311.833,69.1667 310.5,68.5 Z"/></g>
<g><path style="opacity:0.008" fill="#e7ae50" d="M 65.5,73.5 C 66.8333,74.1667 66.8333,74.1667 65.5,73.5 Z"/></g>
<g><path style="opacity:0.004" fill="#d9a24e" d="M 329.5,73.5 C 330.833,74.1667 330.833,74.1667 329.5,73.5 Z"/></g>
<g><path style="opacity:0.008" fill="#e2aa51" d="M 326.5,76.5 C 327.833,77.1667 327.833,77.1667 326.5,76.5 Z"/></g>
<g><path style="opacity:0.004" fill="#937747" d="M 374.5,84.5 C 375.833,85.1667 375.833,85.1667 374.5,84.5 Z"/></g>
<g><path style="opacity:0.004" fill="#e8a74d" d="M 44.5,88.5 C 45.8333,89.1667 45.8333,89.1667 44.5,88.5 Z"/></g>
<g><path style="opacity:0.004" fill="#e4a64b" d="M 44.5,91.5 C 45.525,91.8966 45.6917,92.5632 45,93.5C 44.5357,92.9056 44.369,92.2389 44.5,91.5 Z"/></g>
<g><path style="opacity:0.004" fill="#ecac4b" d="M 49.5,95.5 C 48.8333,96.1667 48.8333,96.1667 49.5,95.5 Z"/></g>
<g><path style="opacity:0.004" fill="#f2b04d" d="M 52.5,98.5 C 53.8333,99.1667 53.8333,99.1667 52.5,98.5 Z"/></g>
<g><path style="opacity:0.997" fill="#feba51" d="M 110.5,122.5 C 109.761,122.369 109.094,122.536 108.5,123C 110.208,125.043 112.208,126.71 114.5,128C 112.494,127.85 110.494,127.35 108.5,126.5C 103.792,124.476 99.1256,122.476 94.5,120.5C 91.9922,118.076 88.9922,116.41 85.5,115.5C 76.4923,109.661 67.159,104.328 57.5,99.5C 57.3893,98.8826 57.056,98.3826 56.5,98C 57.9308,97.5348 59.0975,96.7014 60,95.5C 59.7941,100.236 61.9608,101.403 66.5,99C 64.4049,98.4444 64.2382,97.9444 66,97.5C 68.2097,99.1109 70.7097,99.7776 73.5,99.5C 73.3505,98.448 73.5172,97.448 74,96.5C 75.627,99.9029 77.9603,103.57 81,107.5C 83.2169,103.556 84.7169,103.723 85.5,108C 84.1667,108.667 82.8333,109.333 81.5,110C 83.0762,110.44 84.4096,111.273 85.5,112.5C 86.6956,112.154 86.6956,111.654 85.5,111C 87.8297,109.655 90.1631,109.488 92.5,110.5C 91.4706,110.296 90.4706,110.796 89.5,112C 90.1905,113.067 90.6905,114.234 91,115.5C 91.3333,114.5 91.6667,113.5 92,112.5C 93,113.833 94,113.833 95,112.5C 95.3333,113.5 95.6667,114.5 96,115.5C 98.46,111.688 100.627,112.021 102.5,116.5C 102.109,115.109 102.942,114.109 105,113.5C 106.188,114.563 106.688,115.897 106.5,117.5C 107.552,117.351 108.552,117.517 109.5,118C 108.529,119.204 107.529,119.704 106.5,119.5C 106.833,120.5 107.5,121.167 108.5,121.5C 109.944,120.019 110.611,120.352 110.5,122.5 Z"/></g>
<g><path style="opacity:0.004" fill="#f4b04e" d="M 53.5,100.5 C 54.8333,101.167 54.8333,101.167 53.5,100.5 Z"/></g>
<g><path style="opacity:0.012" fill="#f7b44f" d="M 322.5,105.5 C 322.897,104.475 323.563,104.308 324.5,105C 323.906,105.464 323.239,105.631 322.5,105.5 Z"/></g>
<g><path style="opacity:0.004" fill="#d89a4b" d="M 355.5,105.5 C 356.833,106.167 356.833,106.167 355.5,105.5 Z"/></g>
<g><path style="opacity:0.008" fill="#f1ae4e" d="M 340.5,108.5 C 341.833,109.167 341.833,109.167 340.5,108.5 Z"/></g>
<g><path style="opacity:0.016" fill="#f0ad4d" d="M 342.5,108.5 C 343.833,109.167 343.833,109.167 342.5,108.5 Z"/></g>
<g><path style="opacity:0.995" fill="#fda43f" d="M 357.5,111.5 C 355.882,115.084 354.882,119.084 354.5,123.5C 353.264,124.246 351.93,124.579 350.5,124.5C 350.146,126.541 350.146,128.374 350.5,130C 348.362,129.919 348.029,128.919 349.5,127C 348.552,126.517 347.552,126.351 346.5,126.5C 346.351,125.448 346.517,124.448 347,123.5C 348.666,124.34 348.833,123.84 347.5,122C 344.702,121.439 342.869,122.606 342,125.5C 341.333,124.167 340.667,122.833 340,121.5C 339.259,122.641 338.425,122.641 337.5,121.5C 336.808,122.025 336.308,122.692 336,123.5C 335.692,122.692 335.192,122.025 334.5,121.5C 333.868,124.03 332.868,126.363 331.5,128.5C 329.49,127.651 327.823,128.318 326.5,130.5C 325.201,129.91 324.368,128.91 324,127.5C 323.683,129.301 323.016,129.634 322,128.5C 321,129.167 320,129.833 319,130.5C 318.691,129.234 318.191,128.067 317.5,127C 319.01,126.15 320.51,125.317 322,124.5C 322.772,124.645 323.439,124.978 324,125.5C 324.833,124 326,122.833 327.5,122C 326.207,121.51 324.873,121.343 323.5,121.5C 327.336,119.416 331.003,117.083 334.5,114.5C 340.172,111.747 346.006,109.413 352,107.5C 355.133,107.142 356.967,108.475 357.5,111.5 Z"/></g>
<g><path style="opacity:0.004" fill="#f5b64e" d="M 76.5,111.5 C 77.8333,112.167 77.8333,112.167 76.5,111.5 Z"/></g>
<g><path style="opacity:0.996" fill="#fba843" d="M 38.5,108.5 C 37.6236,108.369 36.9569,108.702 36.5,109.5C 38.1128,110.427 39.7795,111.261 41.5,112C 42.6956,112.654 42.6956,113.154 41.5,113.5C 38.7845,112.877 36.1178,112.543 33.5,112.5C 36.36,108.264 35.6933,107.597 31.5,110.5C 31.4142,109.504 31.7476,108.671 32.5,108C 34.7116,107.211 36.7116,107.378 38.5,108.5 Z"/></g>
<g><path style="opacity:0.004" fill="#f7b350" d="M 307.5,113.5 C 308.833,114.167 308.833,114.167 307.5,113.5 Z"/></g>
<g><path style="opacity:0.006" fill="#f9ac4c" d="M 334.5,114.5 C 333.761,114.631 333.094,114.464 332.5,114C 333.437,113.308 334.103,113.475 334.5,114.5 Z"/></g>
<g><path style="opacity:0.004" fill="#f8b550" d="M 305.5,114.5 C 306.833,115.167 306.833,115.167 305.5,114.5 Z"/></g>
<g><path style="opacity:0.008" fill="#fcb750" d="M 85.5,115.5 C 84.8333,116.167 84.8333,116.167 85.5,115.5 Z"/></g>
<g><path style="opacity:0.004" fill="#f6b048" d="M 58.5,116.5 C 59.8333,117.167 59.8333,117.167 58.5,116.5 Z"/></g>
<g><path style="opacity:0.004" fill="#f7af4b" d="M 326.5,116.5 C 327.833,117.167 327.833,117.167 326.5,116.5 Z"/></g>
<g><path style="opacity:0.004" fill="#feb54c" d="M 84.5,118.5 C 85.8333,119.167 85.8333,119.167 84.5,118.5 Z"/></g>
<g><path style="opacity:0.008" fill="#feb34e" d="M 86.5,118.5 C 87.8333,119.167 87.8333,119.167 86.5,118.5 Z"/></g>
<g><path style="opacity:0.004" fill="#fbb54d" d="M 91.5,119.5 C 92.8333,120.167 92.8333,120.167 91.5,119.5 Z"/></g>
<g><path style="opacity:0.004" fill="#fdb54d" d="M 91.5,120.5 C 90.8333,121.167 90.8333,121.167 91.5,120.5 Z"/></g>
<g><path style="opacity:0.008" fill="#fbb44d" d="M 94.5,120.5 C 93.8333,121.167 93.8333,121.167 94.5,120.5 Z"/></g>
<g><path style="opacity:0.004" fill="#f8b14e" d="M 305.5,120.5 C 306.833,121.167 306.833,121.167 305.5,120.5 Z"/></g>
<g><path style="opacity:0.004" fill="#faaf49" d="M 319.5,122.5 C 318.761,122.631 318.094,122.464 317.5,122C 318.437,121.308 319.103,121.475 319.5,122.5 Z"/></g>
<g><path style="opacity:0.008" fill="#fab54f" d="M 288.5,122.5 C 289.833,123.167 289.833,123.167 288.5,122.5 Z"/></g>
<g><path style="opacity:0.008" fill="#fbb450" d="M 288.5,123.5 C 287.833,124.167 287.833,124.167 288.5,123.5 Z"/></g>
<g><path style="opacity:0.008" fill="#fbb54d" d="M 291.5,123.5 C 292.833,124.167 292.833,124.167 291.5,123.5 Z"/></g>
<g><path style="opacity:0.004" fill="#fab04a" d="M 307.5,123.5 C 308.833,124.167 308.833,124.167 307.5,123.5 Z"/></g>
<g><path style="opacity:0.992" fill="#fdb74d" d="M 110.5,122.5 C 111.474,123.635 112.641,124.635 114,125.5C 115.488,124.804 116.988,125.138 118.5,126.5C 117.565,129.06 118.399,129.726 121,128.5C 123.029,129.035 124.862,130.201 126.5,132C 128.207,132.195 129.874,132.195 131.5,132C 132.467,134.934 133.8,137.6 135.5,140C 140.73,142.106 145.397,144.939 149.5,148.5C 140.136,143.818 130.802,139.151 121.5,134.5C 116.999,132.084 112.666,129.417 108.5,126.5C 110.494,127.35 112.494,127.85 114.5,128C 112.208,126.71 110.208,125.043 108.5,123C 109.094,122.536 109.761,122.369 110.5,122.5 Z"/></g>
<g><path style="opacity:0.004" fill="#fab048" d="M 313.5,125.5 C 312.833,124.167 312.833,124.167 313.5,125.5 Z"/></g>
<g><path style="opacity:0.997" fill="#fea13c" d="M 68.5,123.5 C 83.3392,131.42 98.3392,139.087 113.5,146.5C 118.24,149.534 123.24,152.201 128.5,154.5C 128.842,155.338 129.508,155.672 130.5,155.5C 130.842,156.338 131.508,156.672 132.5,156.5C 135.678,159.258 139.345,161.258 143.5,162.5C 155.58,169.378 167.914,176.045 180.5,182.5C 184.242,185.236 186.242,188.903 186.5,193.5C 185.167,249.5 185.167,305.5 186.5,361.5C 185.765,364.966 183.598,366.966 180,367.5C 178.122,366.947 176.622,365.947 175.5,364.5C 174.972,363.279 174.305,362.113 173.5,361C 169.703,358.876 165.703,357.209 161.5,356C 162.833,355.333 162.833,354.667 161.5,354C 158.346,351.54 155.012,350.707 151.5,351.5C 150.833,351.5 150.167,351.5 149.5,351.5C 146.833,349.5 144.167,347.5 141.5,345.5C 141.047,344.542 140.381,343.708 139.5,343C 136.514,340.034 132.514,337.534 127.5,335.5C 126.914,335.709 126.414,336.043 126,336.5C 121.333,333.167 116.667,329.833 112,326.5C 111.329,327.252 110.496,327.586 109.5,327.5C 106.833,326.5 104.167,325.5 101.5,324.5C 99.6644,322.412 97.3311,321.079 94.5,320.5C 93.1007,319.11 91.4341,318.11 89.5,317.5C 89.1583,316.662 88.4916,316.328 87.5,316.5C 75.6298,308.73 63.2965,301.73 50.5,295.5C 50.1583,294.662 49.4916,294.328 48.5,294.5C 48.1667,293.833 47.8333,293.167 47.5,292.5C 46.5253,289.752 44.692,287.752 42,286.5C 41.6667,287.167 41.3333,287.833 41,288.5C 40.7104,286.956 40.0437,285.623 39,284.5C 38.5831,285.756 37.7498,286.423 36.5,286.5C 35.609,285.89 34.609,285.557 33.5,285.5C 32.8902,284.609 32.5569,283.609 32.5,282.5C 31.5166,240.864 31.1833,199.197 31.5,157.5C 32.33,148.009 32.83,138.342 33,128.5C 34.488,129.196 35.988,128.862 37.5,127.5C 34.7019,125.434 35.0352,123.934 38.5,123C 37.5,122.667 36.5,122.333 35.5,122C 39.1667,121.333 42.8333,121.333 46.5,122C 44.741,123.008 43.5743,124.508 43,126.5C 42.6667,126.167 42.3333,125.833 42,125.5C 38.5369,130.668 39.0369,131.335 43.5,127.5C 45.5294,128.629 45.8627,128.129 44.5,126C 45.4491,125.383 46.2825,125.549 47,126.5C 48.1597,124.203 49.1597,124.536 50,127.5C 53.7217,126.708 56.7217,128.042 59,131.5C 59.6667,130.167 60.3333,128.833 61,127.5C 61.3333,128.5 61.6667,129.5 62,130.5C 64.7886,130.588 67.622,130.254 70.5,129.5C 70.3505,130.552 70.5172,131.552 71,132.5C 72.4601,132.018 73.9601,130.851 75.5,129C 72.5222,127.511 69.5222,126.011 66.5,124.5C 66.9569,123.702 67.6236,123.369 68.5,123.5 Z"/></g>
<g><path style="opacity:0.008" fill="#fab04a" d="M 307.5,126.5 C 308.833,127.167 308.833,127.167 307.5,126.5 Z"/></g>
<g><path style="opacity:1" fill="#fea33d" d="M 38.5,108.5 C 45.1667,111.5 51.8333,114.5 58.5,117.5C 61.1879,119.266 64.0212,120.933 67,122.5C 68.1068,121.288 68.6068,121.621 68.5,123.5C 67.6236,123.369 66.9569,123.702 66.5,124.5C 69.5222,126.011 72.5222,127.511 75.5,129C 73.9601,130.851 72.4601,132.018 71,132.5C 70.5172,131.552 70.3505,130.552 70.5,129.5C 67.622,130.254 64.7886,130.588 62,130.5C 61.6667,129.5 61.3333,128.5 61,127.5C 60.3333,128.833 59.6667,130.167 59,131.5C 56.7217,128.042 53.7217,126.708 50,127.5C 49.1597,124.536 48.1597,124.203 47,126.5C 46.2825,125.549 45.4491,125.383 44.5,126C 45.8627,128.129 45.5294,128.629 43.5,127.5C 39.0369,131.335 38.5369,130.668 42,125.5C 42.3333,125.833 42.6667,126.167 43,126.5C 43.5743,124.508 44.741,123.008 46.5,122C 42.8333,121.333 39.1667,121.333 35.5,122C 36.5,122.333 37.5,122.667 38.5,123C 35.0352,123.934 34.7019,125.434 37.5,127.5C 35.988,128.862 34.488,129.196 33,128.5C 32.83,138.342 32.33,148.009 31.5,157.5C 31.5,141.833 31.5,126.167 31.5,110.5C 35.6933,107.597 36.36,108.264 33.5,112.5C 36.1178,112.543 38.7845,112.877 41.5,113.5C 42.6956,113.154 42.6956,112.654 41.5,112C 39.7795,111.261 38.1128,110.427 36.5,109.5C 36.9569,108.702 37.6236,108.369 38.5,108.5 Z"/></g>
<g><path style="opacity:0.008" fill="#fdb450" d="M 281.5,127.5 C 282.833,128.167 282.833,128.167 281.5,127.5 Z"/></g>
<g><path style="opacity:0.004" fill="#faae48" d="M 302.5,129.5 C 303.833,130.167 303.833,130.167 302.5,129.5 Z"/></g>
<g><path style="opacity:0.008" fill="#fbad46" d="M 91.5,131.5 C 92.8333,132.167 92.8333,132.167 91.5,131.5 Z"/></g>
<g><path style="opacity:0.004" fill="#feb54f" d="M 121.5,134.5 C 120.749,135.573 119.749,135.74 118.5,135C 119.448,134.517 120.448,134.351 121.5,134.5 Z"/></g>
<g><path style="opacity:0.987" fill="#feb84e" d="M 269.5,132.5 C 262.798,136.182 256.132,139.849 249.5,143.5C 243.835,145.997 238.502,148.997 233.5,152.5C 231.716,152.893 230.05,153.559 228.5,154.5C 226.77,153.088 225.27,153.422 224,155.5C 223.283,154.956 222.783,154.289 222.5,153.5C 222.938,153.565 223.272,153.399 223.5,153C 220.113,151.064 219.613,148.564 222,145.5C 223.346,142.751 224.68,142.417 226,144.5C 226.923,143.241 227.757,141.908 228.5,140.5C 228.554,141.53 228.888,142.697 229.5,144C 226.816,144.778 224.483,146.111 222.5,148C 224.397,149.11 226.23,149.276 228,148.5C 228.538,152.003 230.038,152.836 232.5,151C 231.328,150.581 230.328,149.915 229.5,149C 231.301,148.683 231.634,148.016 230.5,147C 231.715,144.904 232.549,145.071 233,147.5C 234,147.167 235,146.833 236,146.5C 236.974,148.878 237.641,148.544 238,145.5C 241.701,146.731 244.201,145.397 245.5,141.5C 243.009,140.459 243.009,139.626 245.5,139C 244.549,138.282 244.383,137.449 245,136.5C 246.929,138.684 248.763,138.35 250.5,135.5C 255.686,139.587 259.353,138.42 261.5,132C 261.108,130.989 260.441,130.489 259.5,130.5C 261.007,129.261 262.174,129.595 263,131.5C 265.387,129.108 267.554,129.441 269.5,132.5 Z"/></g>
<g><path style="opacity:0.012" fill="#fdb44e" d="M 265.5,135.5 C 266.833,136.167 266.833,136.167 265.5,135.5 Z"/></g>
<g><path style="opacity:0.012" fill="#f9b34d" d="M 263.5,136.5 C 264.833,137.167 264.833,137.167 263.5,136.5 Z"/></g>
<g><path style="opacity:0.008" fill="#f6ab48" d="M 99.5,137.5 C 100.833,138.167 100.833,138.167 99.5,137.5 Z"/></g>
<g><path style="opacity:0.008" fill="#fcae48" d="M 287.5,137.5 C 288.833,138.167 288.833,138.167 287.5,137.5 Z"/></g>
<g><path style="opacity:0.008" fill="#fbae48" d="M 285.5,138.5 C 286.833,139.167 286.833,139.167 285.5,138.5 Z"/></g>
<g><path style="opacity:0.008" fill="#fab046" d="M 283.5,139.5 C 284.833,140.167 284.833,140.167 283.5,139.5 Z"/></g>
<g><path style="opacity:0.004" fill="#e89c3e" d="M 28.5,140.5 C 29.8333,141.167 29.8333,141.167 28.5,140.5 Z"/></g>
<g><path style="opacity:0.004" fill="#fbb54c" d="M 256.5,140.5 C 257.833,141.167 257.833,141.167 256.5,140.5 Z"/></g>
<g><path style="opacity:0.004" fill="#fdb148" d="M 276.5,140.5 C 277.833,141.167 277.833,141.167 276.5,140.5 Z"/></g>
<g><path style="opacity:0.004" fill="#fbaf47" d="M 278.5,140.5 C 279.833,141.167 279.833,141.167 278.5,140.5 Z"/></g>
<g><path style="opacity:0.004" fill="#fcb54d" d="M 249.5,143.5 C 250.167,143.5 250.5,143.833 250.5,144.5C 250.167,144.167 249.833,143.833 249.5,143.5 Z"/></g>
<g><path style="opacity:0.997" fill="#fea13d" d="M 357.5,111.5 C 358.833,167.167 358.833,222.833 357.5,278.5C 357.902,249.81 357.402,221.143 356,192.5C 355.183,222.209 355.349,251.875 356.5,281.5C 356.141,283.371 355.141,284.871 353.5,286C 346.473,289.846 339.473,293.679 332.5,297.5C 331.178,297.67 330.011,297.337 329,296.5C 324.707,300.065 319.873,302.732 314.5,304.5C 313.614,305.325 313.281,306.325 313.5,307.5C 311.533,307.739 309.699,307.406 308,306.5C 306.184,308.441 304.184,309.108 302,308.5C 301.517,307.552 301.351,306.552 301.5,305.5C 299.533,305.261 297.699,305.594 296,306.5C 295.751,303.823 294.751,301.49 293,299.5C 292.333,302.833 292.333,306.167 293,309.5C 293.333,309.167 293.667,308.833 294,308.5C 295.171,309.893 296.671,310.727 298.5,311C 296.431,311.324 296.098,312.158 297.5,313.5C 296.675,314.386 295.675,314.719 294.5,314.5C 294.263,317.24 292.763,318.907 290,319.5C 288.463,318.886 287.13,318.886 286,319.5C 285.085,318.672 284.419,317.672 284,316.5C 281.664,317.292 281.164,318.625 282.5,320.5C 279.689,322.144 277.356,324.31 275.5,327C 274.004,327.507 272.837,327.007 272,325.5C 271.383,326.449 271.549,327.282 272.5,328C 271.234,328.309 270.067,328.809 269,329.5C 268.544,328.256 269.044,327.423 270.5,327C 268.699,326.683 268.366,326.016 269.5,325C 268.062,324.781 266.729,324.281 265.5,323.5C 266.506,322.604 266.506,321.938 265.5,321.5C 262.163,322.109 261.83,323.276 264.5,325C 263.833,325.333 263.167,325.667 262.5,326C 263.784,326.684 264.951,326.517 266,325.5C 266.692,326.025 267.192,326.692 267.5,327.5C 266.359,328.425 266.359,329.259 267.5,330C 266.207,330.49 264.873,330.657 263.5,330.5C 263.617,332.484 262.95,334.15 261.5,335.5C 259.253,336.245 257.42,337.578 256,339.5C 255.667,339.167 255.333,338.833 255,338.5C 252.012,340.49 249.345,342.823 247,345.5C 246.586,345.043 246.086,344.709 245.5,344.5C 241.717,346.445 238.051,348.611 234.5,351C 233.177,351.816 232.511,352.983 232.5,354.5C 229.328,356.252 226.328,358.252 223.5,360.5C 219.577,361.795 215.91,363.628 212.5,366C 210.167,366.667 207.833,366.667 205.5,366C 204.333,365.5 203.5,364.667 203,363.5C 202.333,305.833 202.333,248.167 203,190.5C 204.993,184.675 208.826,180.675 214.5,178.5C 219.984,176.593 224.984,173.927 229.5,170.5C 237.827,166.672 245.827,162.338 253.5,157.5C 273.794,147.354 293.794,136.687 313.5,125.5C 315.819,125.008 317.819,124.008 319.5,122.5C 320.833,122.167 322.167,121.833 323.5,121.5C 324.873,121.343 326.207,121.51 327.5,122C 326,122.833 324.833,124 324,125.5C 323.439,124.978 322.772,124.645 322,124.5C 320.51,125.317 319.01,126.15 317.5,127C 318.191,128.067 318.691,129.234 319,130.5C 320,129.833 321,129.167 322,128.5C 323.016,129.634 323.683,129.301 324,127.5C 324.368,128.91 325.201,129.91 326.5,130.5C 327.823,128.318 329.49,127.651 331.5,128.5C 332.868,126.363 333.868,124.03 334.5,121.5C 335.192,122.025 335.692,122.692 336,123.5C 336.308,122.692 336.808,122.025 337.5,121.5C 338.425,122.641 339.259,122.641 340,121.5C 340.667,122.833 341.333,124.167 342,125.5C 342.869,122.606 344.702,121.439 347.5,122C 348.833,123.84 348.666,124.34 347,123.5C 346.517,124.448 346.351,125.448 346.5,126.5C 347.552,126.351 348.552,126.517 349.5,127C 348.029,128.919 348.362,129.919 350.5,130C 350.146,128.374 350.146,126.541 350.5,124.5C 351.93,124.579 353.264,124.246 354.5,123.5C 354.882,119.084 355.882,115.084 357.5,111.5 Z"/></g>
<g><path style="opacity:0.004" fill="#fcb54d" d="M 250.5,144.5 C 251.833,145.167 251.833,145.167 250.5,144.5 Z"/></g>
<g><path style="opacity:0.004" fill="#f7ad48" d="M 113.5,145.5 C 114.833,146.167 114.833,146.167 113.5,145.5 Z"/></g>
<g><path style="opacity:0.004" fill="#eb9d3f" d="M 28.5,148.5 C 29.8333,149.167 29.8333,149.167 28.5,148.5 Z"/></g>
<g><path style="opacity:0.997" fill="#feb84f" d="M 212.5,160.5 C 208.656,162.922 204.99,165.589 201.5,168.5C 197.806,170.412 193.806,170.912 189.5,170C 184.113,167.646 179.113,164.812 174.5,161.5C 170.5,158.833 166.5,156.167 162.5,153.5C 165.122,151.175 167.288,151.842 169,155.5C 171.294,155.209 173.627,154.209 176,152.5C 177.5,153 179,153.5 180.5,154C 179.692,154.308 179.025,154.808 178.5,155.5C 178.846,156.696 179.346,156.696 180,155.5C 180.72,157.112 180.554,158.612 179.5,160C 181.642,161.804 183.808,163.637 186,165.5C 187,164.167 188,164.167 189,165.5C 188.383,163.905 188.716,162.572 190,161.5C 193.376,162.852 196.043,162.852 198,161.5C 198.667,160.167 198.667,158.833 198,157.5C 197.043,159.709 195.876,159.543 194.5,157C 196.481,156.395 196.815,155.395 195.5,154C 196.253,152.513 197.086,152.346 198,153.5C 198.179,151.576 198.346,149.909 198.5,148.5C 199.553,149.438 200.22,150.605 200.5,152C 199.047,153.713 199.214,155.213 201,156.5C 202.193,155.022 202.693,153.688 202.5,152.5C 203.845,153.347 204.845,154.513 205.5,156C 204.833,156.333 204.167,156.667 203.5,157C 205.159,159.226 204.492,160.893 201.5,162C 204.831,162.004 207.998,161.171 211,159.5C 211.383,160.056 211.883,160.389 212.5,160.5 Z"/></g>
<g><path style="opacity:0.004" fill="#fdb44b" d="M 151.5,150.5 C 150.833,151.167 150.833,151.167 151.5,150.5 Z"/></g>
<g><path style="opacity:0.008" fill="#fbb34b" d="M 233.5,152.5 C 234.552,152.351 235.552,152.517 236.5,153C 235.251,153.74 234.251,153.573 233.5,152.5 Z"/></g>
<g><path style="opacity:0.016" fill="#f8ae4a" d="M 128.5,153.5 C 129.833,154.167 129.833,154.167 128.5,153.5 Z"/></g>
<g><path style="opacity:0.008" fill="#f9ad47" d="M 252.5,153.5 C 253.833,154.167 253.833,154.167 252.5,153.5 Z"/></g>
<g><path style="opacity:0.004" fill="#ec9c3e" d="M 28.5,154.5 C 29.8333,155.167 29.8333,155.167 28.5,154.5 Z"/></g>
<g><path style="opacity:0.004" fill="#f7ac49" d="M 130.5,154.5 C 131.833,155.167 131.833,155.167 130.5,154.5 Z"/></g>
<g><path style="opacity:0.004" fill="#fbae47" d="M 132.5,155.5 C 133.833,156.167 133.833,156.167 132.5,155.5 Z"/></g>
<g><path style="opacity:0.004" fill="#f9ad48" d="M 139.5,155.5 C 140.833,156.167 140.833,156.167 139.5,155.5 Z"/></g>
<g><path style="opacity:0.012" fill="#ed9f40" d="M 28.5,156.5 C 29.8333,157.167 29.8333,157.167 28.5,156.5 Z"/></g>
<g><path style="opacity:0.004" fill="#fcb34e" d="M 156.5,156.5 C 157.833,157.167 157.833,157.167 156.5,156.5 Z"/></g>
<g><path style="opacity:0.008" fill="#faac46" d="M 253.5,157.5 C 252.833,156.167 252.833,156.167 253.5,157.5 Z"/></g>
<g><path style="opacity:0.988" fill="#fdb247" d="M 150.5,149.5 C 150.56,148.957 150.893,148.624 151.5,148.5C 154.99,150.683 158.657,152.35 162.5,153.5C 166.5,156.167 170.5,158.833 174.5,161.5C 166.681,158.09 159.014,154.423 151.5,150.5C 151.5,149.833 151.167,149.5 150.5,149.5 Z"/></g>
<g><path style="opacity:0.004" fill="#fdb34c" d="M 222.5,158.5 C 223.833,159.167 223.833,159.167 222.5,158.5 Z"/></g>
<g><path style="opacity:0.004" fill="#fcb24a" d="M 227.5,158.5 C 228.833,159.167 228.833,159.167 227.5,158.5 Z"/></g>
<g><path style="opacity:0.004" fill="#fbb54d" d="M 168.5,160.5 C 169.833,161.167 169.833,161.167 168.5,160.5 Z"/></g>
<g><path style="opacity:0.996" fill="#fcb248" d="M 222.5,153.5 C 222.783,154.289 223.283,154.956 224,155.5C 225.27,153.422 226.77,153.088 228.5,154.5C 226.118,155.351 224.118,156.684 222.5,158.5C 220.847,158.66 219.514,159.326 218.5,160.5C 213.016,162.407 208.016,165.073 203.5,168.5C 202.833,168.5 202.167,168.5 201.5,168.5C 204.99,165.589 208.656,162.922 212.5,160.5C 214.308,160.509 215.975,160.009 217.5,159C 217.167,158.667 216.833,158.333 216.5,158C 218.667,156.365 219.834,154.532 220,152.5C 220.671,153.252 221.504,153.586 222.5,153.5 Z"/></g>
<g><path style="opacity:0.012" fill="#fdb54b" d="M 218.5,160.5 C 219.239,160.369 219.906,160.536 220.5,161C 219.563,161.692 218.897,161.525 218.5,160.5 Z"/></g>
<g><path style="opacity:0.004" fill="#f8ad49" d="M 143.5,161.5 C 144.833,162.167 144.833,162.167 143.5,161.5 Z"/></g>
<g><path style="opacity:0.012" fill="#ed9c3f" d="M 28.5,164.5 C 29.8333,165.167 29.8333,165.167 28.5,164.5 Z"/></g>
<g><path style="opacity:0.004" fill="#faad4a" d="M 153.5,164.5 C 154.833,165.167 154.833,165.167 153.5,164.5 Z"/></g>
<g><path style="opacity:0.012" fill="#fcae47" d="M 236.5,164.5 C 237.833,165.167 237.833,165.167 236.5,164.5 Z"/></g>
<g><path style="opacity:0.004" fill="#c58d45" d="M 374.5,164.5 C 375.833,165.167 375.833,165.167 374.5,164.5 Z"/></g>
<g><path style="opacity:0.004" fill="#ed9c3f" d="M 28.5,167.5 C 29.8333,168.167 29.8333,168.167 28.5,167.5 Z"/></g>
<g><path style="opacity:0.004" fill="#feb54c" d="M 177.5,167.5 C 178.833,168.167 178.833,168.167 177.5,167.5 Z"/></g>
<g><path style="opacity:0.004" fill="#fab24c" d="M 183.5,168.5 C 184.833,169.167 184.833,169.167 183.5,168.5 Z"/></g>
<g><path style="opacity:0.004" fill="#fbb147" d="M 203.5,168.5 C 204.833,169.167 204.833,169.167 203.5,168.5 Z"/></g>
<g><path style="opacity:0.004" fill="#fdae47" d="M 221.5,169.5 C 222.833,170.167 222.833,170.167 221.5,169.5 Z"/></g>
<g><path style="opacity:0.012" fill="#f9aa45" d="M 229.5,170.5 C 228.833,169.167 228.833,169.167 229.5,170.5 Z"/></g>
<g><path style="opacity:0.004" fill="#fdb049" d="M 221.5,170.5 C 220.833,171.167 220.833,171.167 221.5,170.5 Z"/></g>
<g><path style="opacity:0.008" fill="#feae47" d="M 224.5,170.5 C 225.833,171.167 225.833,171.167 224.5,170.5 Z"/></g>
<g><path style="opacity:0.008" fill="#f9ae47" d="M 163.5,171.5 C 164.833,172.167 164.833,172.167 163.5,171.5 Z"/></g>
<g><path style="opacity:0.004" fill="#fab54e" d="M 195.5,171.5 C 196.833,172.167 196.833,172.167 195.5,171.5 Z"/></g>
<g><path style="opacity:0.004" fill="#ea9d3f" d="M 28.5,172.5 C 29.8333,173.167 29.8333,173.167 28.5,172.5 Z"/></g>
<g><path style="opacity:0.008" fill="#fdad47" d="M 165.5,172.5 C 166.833,173.167 166.833,173.167 165.5,172.5 Z"/></g>
<g><path style="opacity:0.012" fill="#fcae45" d="M 222.5,172.5 C 223.833,173.167 223.833,173.167 222.5,172.5 Z"/></g>
<g><path style="opacity:0.004" fill="#fcad49" d="M 206.5,178.5 C 206.897,177.475 207.563,177.308 208.5,178C 207.906,178.464 207.239,178.631 206.5,178.5 Z"/></g>
<g><path style="opacity:0.016" fill="#faac48" d="M 214.5,178.5 C 213.761,178.631 213.094,178.464 212.5,178C 213.437,177.308 214.103,177.475 214.5,178.5 Z"/></g>
<g><path style="opacity:0.004" fill="#ea9c3f" d="M 28.5,180.5 C 29.8333,181.167 29.8333,181.167 28.5,180.5 Z"/></g>
<g><path style="opacity:0.004" fill="#fbaa46" d="M 186.5,188.5 C 187.833,189.167 187.833,189.167 186.5,188.5 Z"/></g>
<g><path style="opacity:0.004" fill="#fcab46" d="M 199.5,188.5 C 200.833,189.167 200.833,189.167 199.5,188.5 Z"/></g>
<g><path style="opacity:0.004" fill="#c48d46" d="M 374.5,188.5 C 375.833,189.167 375.833,189.167 374.5,188.5 Z"/></g>
<g><path style="opacity:0.012" fill="#fba943" d="M 187.5,195.5 C 188.833,196.167 188.833,196.167 187.5,195.5 Z"/></g>
<g><path style="opacity:0.004" fill="#eb9b3f" d="M 28.5,196.5 C 29.8333,197.167 29.8333,197.167 28.5,196.5 Z"/></g>
<g><path style="opacity:0.004" fill="#f9aa41" d="M 187.5,197.5 C 188.833,198.167 188.833,198.167 187.5,197.5 Z"/></g>
<g><path style="opacity:0.008" fill="#fda943" d="M 200.5,197.5 C 201.833,198.167 201.833,198.167 200.5,197.5 Z"/></g>
<g><path style="opacity:0.004" fill="#fba943" d="M 200.5,199.5 C 201.833,200.167 201.833,200.167 200.5,199.5 Z"/></g>
<g><path style="opacity:0.004" fill="#eb9b3e" d="M 28.5,204.5 C 29.8333,205.167 29.8333,205.167 28.5,204.5 Z"/></g>
<g><path style="opacity:0.008" fill="#fba942" d="M 200.5,205.5 C 201.833,206.167 201.833,206.167 200.5,205.5 Z"/></g>
<g><path style="opacity:0.004" fill="#f9a942" d="M 187.5,206.5 C 188.833,207.167 188.833,207.167 187.5,206.5 Z"/></g>
<g><path style="opacity:0.004" fill="#fba842" d="M 200.5,207.5 C 201.833,208.167 201.833,208.167 200.5,207.5 Z"/></g>
<g><path style="opacity:0.004" fill="#fcaa42" d="M 187.5,208.5 C 188.833,209.167 188.833,209.167 187.5,208.5 Z"/></g>
<g><path style="opacity:0.01" fill="#fcab46" d="M 186.5,209.5 C 186.833,209.5 187.167,209.5 187.5,209.5C 187.678,210.695 188.011,211.862 188.5,213C 188.164,214.03 187.497,214.53 186.5,214.5C 186.5,212.833 186.5,211.167 186.5,209.5 Z"/></g>
<g><path style="opacity:0.004" fill="#eb9a3d" d="M 28.5,212.5 C 29.8333,213.167 29.8333,213.167 28.5,212.5 Z"/></g>
<g><path style="opacity:0.008" fill="#fca840" d="M 200.5,213.5 C 201.833,214.167 201.833,214.167 200.5,213.5 Z"/></g>
<g><path style="opacity:0.004" fill="#fda741" d="M 200.5,215.5 C 201.833,216.167 201.833,216.167 200.5,215.5 Z"/></g>
<g><path style="opacity:0.004" fill="#fba741" d="M 187.5,216.5 C 188.833,217.167 188.833,217.167 187.5,216.5 Z"/></g>
<g><path style="opacity:0.008" fill="#fdad46" d="M 186.5,219.5 C 188.698,219.409 189.031,220.075 187.5,221.5C 187.167,221.5 186.833,221.5 186.5,221.5C 186.5,220.833 186.5,220.167 186.5,219.5 Z"/></g>
<g><path style="opacity:0.008" fill="#f8aa40" d="M 187.5,221.5 C 188.833,222.167 188.833,222.167 187.5,221.5 Z"/></g>
<g><path style="opacity:0.012" fill="#fda840" d="M 200.5,220.5 C 201.598,221.601 201.765,222.934 201,224.5C 200.51,223.207 200.343,221.873 200.5,220.5 Z"/></g>
<g><path style="opacity:0.01" fill="#fba942" d="M 187.5,225.5 C 187.369,224.761 187.536,224.094 188,223.5C 188.692,224.437 188.525,225.103 187.5,225.5 Z"/></g>
<g><path style="opacity:0.994" fill="#fe912e" d="M 186.5,193.5 C 186.678,196.879 186.678,200.045 186.5,203C 187.167,203.333 187.833,203.667 188.5,204C 186.808,205.401 186.141,207.234 186.5,209.5C 186.5,211.167 186.5,212.833 186.5,214.5C 186.263,215.791 186.596,216.791 187.5,217.5C 187.167,218.167 186.833,218.833 186.5,219.5C 186.5,220.167 186.5,220.833 186.5,221.5C 186.5,222.833 186.5,224.167 186.5,225.5C 186.5,227.167 186.5,228.833 186.5,230.5C 186.5,231.167 186.5,231.833 186.5,232.5C 186.5,234.5 186.5,236.5 186.5,238.5C 187.071,240.36 187.071,242.027 186.5,243.5C 186.5,244.5 186.5,245.5 186.5,246.5C 186.5,247.167 186.5,247.833 186.5,248.5C 186.5,250.5 186.5,252.5 186.5,254.5C 186.5,255.5 186.5,256.5 186.5,257.5C 186.5,259.167 186.5,260.833 186.5,262.5C 186.5,262.833 186.5,263.167 186.5,263.5C 186.5,263.833 186.5,264.167 186.5,264.5C 186.5,264.833 186.5,265.167 186.5,265.5C 186.5,267.5 186.5,269.5 186.5,271.5C 186.328,272.492 186.662,273.158 187.5,273.5C 187.167,274.167 186.833,274.833 186.5,275.5C 186.5,276.5 186.5,277.5 186.5,278.5C 186.5,279.5 186.5,280.5 186.5,281.5C 186.5,283.167 186.5,284.833 186.5,286.5C 186.5,287.167 186.5,287.833 186.5,288.5C 186.5,290.833 186.5,293.167 186.5,295.5C 186.5,296.167 186.5,296.833 186.5,297.5C 186.5,298.833 186.5,300.167 186.5,301.5C 186.5,302.167 186.5,302.833 186.5,303.5C 186.5,303.833 186.5,304.167 186.5,304.5C 186.5,304.833 186.5,305.167 186.5,305.5C 186.5,307.167 186.5,308.833 186.5,310.5C 186.263,311.791 186.596,312.791 187.5,313.5C 187.167,314.167 186.833,314.833 186.5,315.5C 186.5,316.167 186.5,316.833 186.5,317.5C 186.5,318.833 186.5,320.167 186.5,321.5C 186.5,322.833 186.5,324.167 186.5,325.5C 186.5,326.833 186.5,328.167 186.5,329.5C 186.5,330.833 186.5,332.167 186.5,333.5C 186.5,334.833 186.5,336.167 186.5,337.5C 186.5,338.833 186.5,340.167 186.5,341.5C 186.5,342.833 186.5,344.167 186.5,345.5C 186.5,346.833 186.5,348.167 186.5,349.5C 186.5,350.833 186.5,352.167 186.5,353.5C 186.5,355.167 186.5,356.833 186.5,358.5C 186.5,359.5 186.5,360.5 186.5,361.5C 185.167,305.5 185.167,249.5 186.5,193.5 Z"/></g>
<g><path style="opacity:0.008" fill="#fdab44" d="M 186.5,225.5 C 186.833,225.5 187.167,225.5 187.5,225.5C 188.452,227.112 188.786,228.612 188.5,230C 187.906,230.464 187.239,230.631 186.5,230.5C 186.5,228.833 186.5,227.167 186.5,225.5 Z"/></g>
<g><path style="opacity:0.004" fill="#ea9a3e" d="M 28.5,228.5 C 29.8333,229.167 29.8333,229.167 28.5,228.5 Z"/></g>
<g><path style="opacity:0.005" fill="#fda740" d="M 200.5,229.5 C 201.573,230.251 201.74,231.251 201,232.5C 200.517,231.552 200.351,230.552 200.5,229.5 Z"/></g>
<g><path style="opacity:0.008" fill="#fdac45" d="M 186.5,232.5 C 187.249,233.531 187.915,234.698 188.5,236C 187.167,236.667 187.167,237.333 188.5,238C 187.906,238.464 187.239,238.631 186.5,238.5C 186.5,236.5 186.5,234.5 186.5,232.5 Z"/></g>
<g><path style="opacity:0.008" fill="#e8983e" d="M 28.5,236.5 C 29.8333,237.167 29.8333,237.167 28.5,236.5 Z"/></g>
<g><path style="opacity:0.004" fill="#feaa41" d="M 196.5,236.5 C 197.833,237.167 197.833,237.167 196.5,236.5 Z"/></g>
<g><path style="opacity:0.006" fill="#fda740" d="M 200.5,237.5 C 201.525,237.897 201.692,238.563 201,239.5C 200.536,238.906 200.369,238.239 200.5,237.5 Z"/></g>
<g><path style="opacity:0.634" fill="#f79738" d="M 31.5,110.5 C 31.5,126.167 31.5,141.833 31.5,157.5C 31.1833,199.197 31.5166,240.864 32.5,282.5C 31.7784,282.082 31.2784,281.416 31,280.5C 30.1681,223.665 30.3348,166.999 31.5,110.5 Z"/></g>
<g><path style="opacity:0.987" fill="#fe9e38" d="M 357.5,278.5 C 357.737,279.791 357.404,280.791 356.5,281.5C 355.349,251.875 355.183,222.209 356,192.5C 357.402,221.143 357.902,249.81 357.5,278.5 Z"/></g>
<g><path style="opacity:0.008" fill="#e6973b" d="M 28.5,244.5 C 29.8333,245.167 29.8333,245.167 28.5,244.5 Z"/></g>
<g><path style="opacity:0.016" fill="#fcab43" d="M 186.5,243.5 C 187.492,243.328 188.158,243.662 188.5,244.5C 187.167,244.833 187.167,245.167 188.5,245.5C 188.591,247.698 187.925,248.031 186.5,246.5C 186.5,245.5 186.5,244.5 186.5,243.5 Z"/></g>
<g><path style="opacity:0.004" fill="#fcaa42" d="M 188.5,244.5 C 189.833,245.167 189.833,245.167 188.5,244.5 Z"/></g>
<g><path style="opacity:0.004" fill="#fba741" d="M 200.5,245.5 C 201.833,246.167 201.833,246.167 200.5,245.5 Z"/></g>
<g><path style="opacity:0.017" fill="#fcab44" d="M 186.5,248.5 C 187.239,248.369 187.906,248.536 188.5,249C 188.5,250.667 188.5,252.333 188.5,254C 187.906,254.464 187.239,254.631 186.5,254.5C 186.5,252.5 186.5,250.5 186.5,248.5 Z"/></g>
<g><path style="opacity:0.004" fill="#e6973c" d="M 28.5,252.5 C 29.8333,253.167 29.8333,253.167 28.5,252.5 Z"/></g>
<g><path style="opacity:0.007" fill="#fca640" d="M 200.5,253.5 C 201.573,254.251 201.74,255.251 201,256.5C 200.517,255.552 200.351,254.552 200.5,253.5 Z"/></g>
<g><path style="opacity:0.004" fill="#fda841" d="M 187.5,256.5 C 188.833,257.167 188.833,257.167 187.5,256.5 Z"/></g>
<g><path style="opacity:0.011" fill="#fdaa42" d="M 186.5,257.5 C 186.833,257.5 187.167,257.5 187.5,257.5C 189.178,260.31 188.845,262.643 186.5,264.5C 186.5,264.167 186.5,263.833 186.5,263.5C 187.833,263.167 187.833,262.833 186.5,262.5C 186.5,260.833 186.5,259.167 186.5,257.5 Z"/></g>
<g><path style="opacity:0.004" fill="#e7983d" d="M 28.5,260.5 C 29.8333,261.167 29.8333,261.167 28.5,260.5 Z"/></g>
<g><path style="opacity:0.012" fill="#fba63e" d="M 200.5,261.5 C 201.833,262.167 201.833,262.167 200.5,261.5 Z"/></g>
<g><path style="opacity:0.004" fill="#fca73e" d="M 200.5,263.5 C 201.833,264.167 201.833,264.167 200.5,263.5 Z"/></g>
<g><path style="opacity:0.011" fill="#fdab42" d="M 186.5,265.5 C 187.267,266.172 187.934,267.005 188.5,268C 187.359,268.741 187.359,269.575 188.5,270.5C 188.043,271.298 187.376,271.631 186.5,271.5C 186.5,269.5 186.5,267.5 186.5,265.5 Z"/></g>
<g><path style="opacity:0.004" fill="#e4973d" d="M 28.5,268.5 C 29.8333,269.167 29.8333,269.167 28.5,268.5 Z"/></g>
<g><path style="opacity:0.004" fill="#fea83f" d="M 196.5,268.5 C 197.833,269.167 197.833,269.167 196.5,268.5 Z"/></g>
<g><path style="opacity:0.004" fill="#fca53f" d="M 200.5,269.5 C 201.833,270.167 201.833,270.167 200.5,269.5 Z"/></g>
<g><path style="opacity:0.012" fill="#fca83f" d="M 187.5,272.5 C 188.833,273.167 188.833,273.167 187.5,272.5 Z"/></g>
<g><path style="opacity:0.007" fill="#fcaa43" d="M 186.5,275.5 C 187.239,275.369 187.906,275.536 188.5,276C 187.167,276.667 187.167,277.333 188.5,278C 187.906,278.464 187.239,278.631 186.5,278.5C 186.5,277.5 186.5,276.5 186.5,275.5 Z"/></g>
<g><path style="opacity:0.008" fill="#fba43d" d="M 200.5,277.5 C 201.833,278.167 201.833,278.167 200.5,277.5 Z"/></g>
<g><path style="opacity:0.004" fill="#fda43f" d="M 200.5,279.5 C 201.833,280.167 201.833,280.167 200.5,279.5 Z"/></g>
<g><path style="opacity:0.004" fill="#fba740" d="M 187.5,280.5 C 188.833,281.167 188.833,281.167 187.5,280.5 Z"/></g>
<g><path style="opacity:0.014" fill="#fdab42" d="M 186.5,281.5 C 186.833,281.5 187.167,281.5 187.5,281.5C 188.706,283.437 188.373,285.104 186.5,286.5C 186.5,284.833 186.5,283.167 186.5,281.5 Z"/></g>
<g><path style="opacity:0.004" fill="#dc913a" d="M 33.5,285.5 C 32.8333,286.167 32.8333,286.167 33.5,285.5 Z"/></g>
<g><path style="opacity:0.008" fill="#fca53f" d="M 200.5,285.5 C 201.573,286.251 201.74,287.251 201,288.5C 200.517,287.552 200.351,286.552 200.5,285.5 Z"/></g>
<g><path style="opacity:0.987" fill="#f99936" d="M 47.5,292.5 C 44.492,291.58 41.6587,290.246 39,288.5C 37.692,289.151 36.8586,288.485 36.5,286.5C 37.7498,286.423 38.5831,285.756 39,284.5C 40.0437,285.623 40.7104,286.956 41,288.5C 41.3333,287.833 41.6667,287.167 42,286.5C 44.692,287.752 46.5253,289.752 47.5,292.5 Z"/></g>
<g><path style="opacity:0.016" fill="#fca942" d="M 186.5,288.5 C 187.239,288.369 187.906,288.536 188.5,289C 188.566,291.887 188.233,294.72 187.5,297.5C 187.672,296.508 187.338,295.842 186.5,295.5C 186.5,293.167 186.5,290.833 186.5,288.5 Z"/></g>
<g><path style="opacity:0.004" fill="#e5973b" d="M 45.5,293.5 C 46.8333,294.167 46.8333,294.167 45.5,293.5 Z"/></g>
<g><path style="opacity:0.008" fill="#fba43c" d="M 200.5,293.5 C 201.833,294.167 201.833,294.167 200.5,293.5 Z"/></g>
<g><path style="opacity:0.008" fill="#e7963b" d="M 48.5,294.5 C 47.8333,295.167 47.8333,295.167 48.5,294.5 Z"/></g>
<g><path style="opacity:0.008" fill="#e3963b" d="M 50.5,295.5 C 49.8333,296.167 49.8333,296.167 50.5,295.5 Z"/></g>
<g><path style="opacity:0.008" fill="#fba43d" d="M 200.5,295.5 C 201.833,296.167 201.833,296.167 200.5,295.5 Z"/></g>
<g><path style="opacity:0.004" fill="#fda63e" d="M 198.5,298.5 C 199.833,299.167 199.833,299.167 198.5,298.5 Z"/></g>
<g><path style="opacity:0.01" fill="#fcab43" d="M 186.5,297.5 C 186.833,297.5 187.167,297.5 187.5,297.5C 188.833,298.833 188.833,300.167 187.5,301.5C 187.167,301.5 186.833,301.5 186.5,301.5C 186.5,300.167 186.5,298.833 186.5,297.5 Z"/></g>
<g><path style="opacity:0.004" fill="#fea73f" d="M 196.5,300.5 C 197.833,301.167 197.833,301.167 196.5,300.5 Z"/></g>
<g><path style="opacity:0.008" fill="#fba641" d="M 187.5,301.5 C 188.833,302.833 188.833,304.167 187.5,305.5C 187.5,304.833 187.167,304.5 186.5,304.5C 186.5,304.167 186.5,303.833 186.5,303.5C 187.338,303.158 187.672,302.492 187.5,301.5 Z"/></g>
<g><path style="opacity:0.012" fill="#fba33c" d="M 200.5,301.5 C 201.833,302.167 201.833,302.167 200.5,301.5 Z"/></g>
<g><path style="opacity:0.004" fill="#e1963c" d="M 326.5,301.5 C 327.833,302.167 327.833,302.167 326.5,301.5 Z"/></g>
<g><path style="opacity:0.008" fill="#e8983c" d="M 62.5,303.5 C 61.8333,302.167 61.8333,302.167 62.5,303.5 Z"/></g>
<g><path style="opacity:0.004" fill="#e0973c" d="M 57.5,303.5 C 58.8333,304.167 58.8333,304.167 57.5,303.5 Z"/></g>
<g><path style="opacity:0.004" fill="#e5963c" d="M 62.5,303.5 C 63.1667,303.5 63.5,303.833 63.5,304.5C 63.1667,304.167 62.8333,303.833 62.5,303.5 Z"/></g>
<g><path style="opacity:0.008" fill="#faa43c" d="M 200.5,303.5 C 201.833,304.167 201.833,304.167 200.5,303.5 Z"/></g>
<g><path style="opacity:0.006" fill="#e6973c" d="M 63.5,304.5 C 64.2389,304.369 64.9056,304.536 65.5,305C 64.5632,305.692 63.8966,305.525 63.5,304.5 Z"/></g>
<g><path style="opacity:0.004" fill="#e4953b" d="M 323.5,304.5 C 324.833,305.167 324.833,305.167 323.5,304.5 Z"/></g>
<g><path style="opacity:0.013" fill="#fba942" d="M 186.5,305.5 C 186.833,305.5 187.167,305.5 187.5,305.5C 188.197,307.071 188.53,308.571 188.5,310C 187.906,310.464 187.239,310.631 186.5,310.5C 186.5,308.833 186.5,307.167 186.5,305.5 Z"/></g>
<g><path style="opacity:0.004" fill="#fda63e" d="M 196.5,308.5 C 197.833,309.167 197.833,309.167 196.5,308.5 Z"/></g>
<g><path style="opacity:0.007" fill="#fba43d" d="M 200.5,309.5 C 201.573,310.251 201.74,311.251 201,312.5C 200.517,311.552 200.351,310.552 200.5,309.5 Z"/></g>
<g><path style="opacity:0.004" fill="#faa640" d="M 187.5,312.5 C 188.833,313.167 188.833,313.167 187.5,312.5 Z"/></g>
<g><path style="opacity:0.004" fill="#e49740" d="M 307.5,313.5 C 308.833,314.167 308.833,314.167 307.5,313.5 Z"/></g>
<g><path style="opacity:0.004" fill="#e69a41" d="M 305.5,314.5 C 306.833,315.167 306.833,315.167 305.5,314.5 Z"/></g>
<g><path style="opacity:0.004" fill="#fcaa42" d="M 186.5,315.5 C 188.698,315.409 189.031,316.075 187.5,317.5C 187.167,317.5 186.833,317.5 186.5,317.5C 186.5,316.833 186.5,316.167 186.5,315.5 Z"/></g>
<g><path style="opacity:0.004" fill="#e7983f" d="M 303.5,315.5 C 304.833,316.167 304.833,316.167 303.5,315.5 Z"/></g>
<g><path style="opacity:0.004" fill="#e3973f" d="M 307.5,315.5 C 308.833,316.167 308.833,316.167 307.5,315.5 Z"/></g>
<g><path style="opacity:0.008" fill="#e9983d" d="M 87.5,316.5 C 86.7494,317.573 85.7494,317.74 84.5,317C 85.448,316.517 86.448,316.351 87.5,316.5 Z"/></g>
<g><path style="opacity:0.994" fill="#fc9e3a" d="M 332.5,297.5 C 330.5,298.833 328.5,300.167 326.5,301.5C 311.301,309.929 296.301,318.596 281.5,327.5C 267.166,334.998 253.166,342.998 239.5,351.5C 237.046,352.227 234.713,353.227 232.5,354.5C 232.511,352.983 233.177,351.816 234.5,351C 238.051,348.611 241.717,346.445 245.5,344.5C 246.086,344.709 246.586,345.043 247,345.5C 249.345,342.823 252.012,340.49 255,338.5C 255.333,338.833 255.667,339.167 256,339.5C 257.42,337.578 259.253,336.245 261.5,335.5C 262.95,334.15 263.617,332.484 263.5,330.5C 264.873,330.657 266.207,330.49 267.5,330C 266.359,329.259 266.359,328.425 267.5,327.5C 267.192,326.692 266.692,326.025 266,325.5C 264.951,326.517 263.784,326.684 262.5,326C 263.167,325.667 263.833,325.333 264.5,325C 261.83,323.276 262.163,322.109 265.5,321.5C 266.506,321.938 266.506,322.604 265.5,323.5C 266.729,324.281 268.062,324.781 269.5,325C 268.366,326.016 268.699,326.683 270.5,327C 269.044,327.423 268.544,328.256 269,329.5C 270.067,328.809 271.234,328.309 272.5,328C 271.549,327.282 271.383,326.449 272,325.5C 272.837,327.007 274.004,327.507 275.5,327C 277.356,324.31 279.689,322.144 282.5,320.5C 281.164,318.625 281.664,317.292 284,316.5C 284.419,317.672 285.085,318.672 286,319.5C 287.13,318.886 288.463,318.886 290,319.5C 292.763,318.907 294.263,317.24 294.5,314.5C 295.675,314.719 296.675,314.386 297.5,313.5C 296.098,312.158 296.431,311.324 298.5,311C 296.671,310.727 295.171,309.893 294,308.5C 293.667,308.833 293.333,309.167 293,309.5C 292.333,306.167 292.333,302.833 293,299.5C 294.751,301.49 295.751,303.823 296,306.5C 297.699,305.594 299.533,305.261 301.5,305.5C 301.351,306.552 301.517,307.552 302,308.5C 304.184,309.108 306.184,308.441 308,306.5C 309.699,307.406 311.533,307.739 313.5,307.5C 313.281,306.325 313.614,305.325 314.5,304.5C 319.873,302.732 324.707,300.065 329,296.5C 330.011,297.337 331.178,297.67 332.5,297.5 Z"/></g>
<g><path style="opacity:0.008" fill="#e79a40" d="M 303.5,316.5 C 302.833,317.167 302.833,317.167 303.5,316.5 Z"/></g>
<g><path style="opacity:0.004" fill="#e29840" d="M 307.5,316.5 C 306.833,317.167 306.833,317.167 307.5,316.5 Z"/></g>
<g><path style="opacity:0.012" fill="#e99a3e" d="M 89.5,317.5 C 88.8333,318.167 88.8333,318.167 89.5,317.5 Z"/></g>
<g><path style="opacity:0.004" fill="#f9a53d" d="M 187.5,317.5 C 188.833,318.167 188.833,318.167 187.5,317.5 Z"/></g>
<g><path style="opacity:0.008" fill="#faa63e" d="M 200.5,317.5 C 201.833,318.167 201.833,318.167 200.5,317.5 Z"/></g>
<g><path style="opacity:0.008" fill="#de953f" d="M 307.5,318.5 C 308.833,319.167 308.833,319.167 307.5,318.5 Z"/></g>
<g><path style="opacity:0.004" fill="#e6953c" d="M 86.5,318.5 C 87.525,318.897 87.6917,319.563 87,320.5C 86.5357,319.906 86.369,319.239 86.5,318.5 Z"/></g>
<g><path style="opacity:0.004" fill="#ee993c" d="M 94.5,320.5 C 93.8333,321.167 93.8333,321.167 94.5,320.5 Z"/></g>
<g><path style="opacity:0.004" fill="#d5923d" d="M 307.5,322.5 C 308.833,323.167 308.833,323.167 307.5,322.5 Z"/></g>
<g><path style="opacity:0.008" fill="#fcaa42" d="M 186.5,321.5 C 188.109,322.665 188.443,323.999 187.5,325.5C 187.167,325.5 186.833,325.5 186.5,325.5C 186.5,324.167 186.5,322.833 186.5,321.5 Z"/></g>
<g><path style="opacity:0.008" fill="#ec9a3b" d="M 101.5,324.5 C 100.833,325.167 100.833,325.167 101.5,324.5 Z"/></g>
<g><path style="opacity:0.004" fill="#d7933f" d="M 302.5,324.5 C 303.833,325.167 303.833,325.167 302.5,324.5 Z"/></g>
<g><path style="opacity:0.004" fill="#f5a63c" d="M 187.5,325.5 C 188.833,326.167 188.833,326.167 187.5,325.5 Z"/></g>
<g><path style="opacity:0.006" fill="#faa23e" d="M 200.5,325.5 C 201.573,326.251 201.74,327.251 201,328.5C 200.517,327.552 200.351,326.552 200.5,325.5 Z"/></g>
<g><path style="opacity:0.004" fill="#ed9a3c" d="M 103.5,326.5 C 104.833,327.167 104.833,327.167 103.5,326.5 Z"/></g>
<g><path style="opacity:0.004" fill="#cd8c3e" d="M 307.5,326.5 C 308.833,327.167 308.833,327.167 307.5,326.5 Z"/></g>
<g><path style="opacity:0.012" fill="#e8973e" d="M 281.5,327.5 C 282.833,328.167 282.833,328.167 281.5,327.5 Z"/></g>
<g><path style="opacity:0.008" fill="#f9a53f" d="M 187.5,328.5 C 188.833,329.167 188.833,329.167 187.5,328.5 Z"/></g>
<g><path style="opacity:0.013" fill="#fba841" d="M 186.5,329.5 C 186.833,329.5 187.167,329.5 187.5,329.5C 188.833,330.833 188.833,332.167 187.5,333.5C 187.167,333.5 186.833,333.5 186.5,333.5C 186.5,332.167 186.5,330.833 186.5,329.5 Z"/></g>
<g><path style="opacity:0.004" fill="#e6983d" d="M 108.5,332.5 C 109.833,333.167 109.833,333.167 108.5,332.5 Z"/></g>
<g><path style="opacity:0.008" fill="#f9a13d" d="M 200.5,333.5 C 201.833,334.167 201.833,334.167 200.5,333.5 Z"/></g>
<g><path style="opacity:0.004" fill="#ea983a" d="M 119.5,334.5 C 119.5,334.833 119.5,335.167 119.5,335.5C 118.83,335.019 118.83,334.685 119.5,334.5 Z"/></g>
<g><path style="opacity:0.004" fill="#f7a23e" d="M 187.5,333.5 C 188.525,333.897 188.692,334.563 188,335.5C 187.536,334.906 187.369,334.239 187.5,333.5 Z"/></g>
<g><path style="opacity:0.008" fill="#bd823b" d="M 307.5,334.5 C 308.833,335.167 308.833,335.167 307.5,334.5 Z"/></g>
<g><path style="opacity:0.004" fill="#eb973b" d="M 119.5,335.5 C 120.833,336.167 120.833,336.167 119.5,335.5 Z"/></g>
<g><path style="opacity:0.004" fill="#f7a03e" d="M 200.5,335.5 C 201.833,336.167 201.833,336.167 200.5,335.5 Z"/></g>
<g><path style="opacity:0.004" fill="#ea9b3b" d="M 121.5,336.5 C 122.833,337.167 122.833,337.167 121.5,336.5 Z"/></g>
<g><path style="opacity:0.008" fill="#f8a43f" d="M 187.5,336.5 C 188.833,337.167 188.833,337.167 187.5,336.5 Z"/></g>
<g><path style="opacity:0.016" fill="#e6973c" d="M 267.5,336.5 C 268.833,337.167 268.833,337.167 267.5,336.5 Z"/></g>
<g><path style="opacity:0.008" fill="#e7983c" d="M 124.5,338.5 C 125.833,339.167 125.833,339.167 124.5,338.5 Z"/></g>
<g><path style="opacity:0.006" fill="#faaa42" d="M 186.5,337.5 C 186.833,337.5 187.167,337.5 187.5,337.5C 188.405,338.964 188.405,340.298 187.5,341.5C 187.167,341.5 186.833,341.5 186.5,341.5C 186.5,340.167 186.5,338.833 186.5,337.5 Z"/></g>
<g><path style="opacity:0.004" fill="#e9983b" d="M 128.5,340.5 C 129.833,341.167 129.833,341.167 128.5,340.5 Z"/></g>
<g><path style="opacity:0.954" fill="#fb9b36" d="M 141.5,345.5 C 139.5,344.833 137.5,344.167 135.5,343.5C 130.53,340.011 125.197,337.011 119.5,334.5C 116.167,332.167 112.833,329.833 109.5,327.5C 110.496,327.586 111.329,327.252 112,326.5C 116.667,329.833 121.333,333.167 126,336.5C 126.414,336.043 126.914,335.709 127.5,335.5C 132.514,337.534 136.514,340.034 139.5,343C 140.381,343.708 141.047,344.542 141.5,345.5 Z"/></g>
<g><path style="opacity:0.004" fill="#634c2d" d="M 374.5,340.5 C 375.833,341.167 375.833,341.167 374.5,340.5 Z"/></g>
<g><path style="opacity:0.012" fill="#f7a43d" d="M 187.5,341.5 C 188.833,342.167 188.833,342.167 187.5,341.5 Z"/></g>
<g><path style="opacity:0.012" fill="#f69f3d" d="M 200.5,341.5 C 201.833,342.167 201.833,342.167 200.5,341.5 Z"/></g>
<g><path style="opacity:0.004" fill="#af7836" d="M 307.5,342.5 C 308.833,343.167 308.833,343.167 307.5,342.5 Z"/></g>
<g><path style="opacity:0.004" fill="#e4963b" d="M 129.5,343.5 C 130.833,344.167 130.833,344.167 129.5,343.5 Z"/></g>
<g><path style="opacity:0.004" fill="#e79739" d="M 135.5,343.5 C 135.5,343.833 135.5,344.167 135.5,344.5C 134.83,344.019 134.83,343.685 135.5,343.5 Z"/></g>
<g><path style="opacity:0.008" fill="#f49f3d" d="M 200.5,343.5 C 201.833,344.167 201.833,344.167 200.5,343.5 Z"/></g>
<g><path style="opacity:0.004" fill="#e9973a" d="M 135.5,344.5 C 136.833,345.167 136.833,345.167 135.5,344.5 Z"/></g>
<g><path style="opacity:0.008" fill="#f9a53f" d="M 187.5,344.5 C 188.833,345.167 188.833,345.167 187.5,344.5 Z"/></g>
<g><path style="opacity:0.008" fill="#f9a340" d="M 186.5,345.5 C 186.833,345.5 187.167,345.5 187.5,345.5C 188.833,346.833 188.833,348.167 187.5,349.5C 187.167,349.5 186.833,349.5 186.5,349.5C 186.5,348.167 186.5,346.833 186.5,345.5 Z"/></g>
<g><path style="opacity:0.004" fill="#a57032" d="M 307.5,347.5 C 308.833,348.167 308.833,348.167 307.5,347.5 Z"/></g>
<g><path style="opacity:0.004" fill="#cb8537" d="M 108.5,348.5 C 109.833,349.167 109.833,349.167 108.5,348.5 Z"/></g>
<g><path style="opacity:0.004" fill="#eb983a" d="M 144.5,349.5 C 145.833,350.167 145.833,350.167 144.5,349.5 Z"/></g>
<g><path style="opacity:0.004" fill="#f3a13c" d="M 187.5,349.5 C 188.833,350.167 188.833,350.167 187.5,349.5 Z"/></g>
<g><path style="opacity:0.012" fill="#f49f3c" d="M 200.5,349.5 C 201.833,350.167 201.833,350.167 200.5,349.5 Z"/></g>
<g><path style="opacity:0.008" fill="#9e6d33" d="M 307.5,350.5 C 308.833,351.167 308.833,351.167 307.5,350.5 Z"/></g>
<g><path style="opacity:0.012" fill="#e89939" d="M 149.5,351.5 C 148.833,352.167 148.833,352.167 149.5,351.5 Z"/></g>
<g><path style="opacity:0.004" fill="#f29d3d" d="M 200.5,351.5 C 201.833,352.167 201.833,352.167 200.5,351.5 Z"/></g>
<g><path style="opacity:0.004" fill="#e4983a" d="M 239.5,351.5 C 240.833,352.167 240.833,352.167 239.5,351.5 Z"/></g>
<g><path style="opacity:0.012" fill="#f69f3d" d="M 187.5,352.5 C 188.833,353.167 188.833,353.167 187.5,352.5 Z"/></g>
<g><path style="opacity:0.019" fill="#f59f40" d="M 186.5,353.5 C 186.833,353.5 187.167,353.5 187.5,353.5C 188.872,355.477 188.538,357.144 186.5,358.5C 186.5,356.833 186.5,355.167 186.5,353.5 Z"/></g>
<g><path style="opacity:0.004" fill="#e1943b" d="M 235.5,355.5 C 236.833,356.167 236.833,356.167 235.5,355.5 Z"/></g>
<g><path style="opacity:0.008" fill="#e59338" d="M 156.5,356.5 C 157.833,357.167 157.833,357.167 156.5,356.5 Z"/></g>
<g><path style="opacity:0.994" fill="#f99a36" d="M 175.5,364.5 C 171.152,362.995 167.485,361.161 164.5,359C 159.998,356.636 155.665,354.136 151.5,351.5C 155.012,350.707 158.346,351.54 161.5,354C 162.833,354.667 162.833,355.333 161.5,356C 165.703,357.209 169.703,358.876 173.5,361C 174.305,362.113 174.972,363.279 175.5,364.5 Z"/></g>
<g><path style="opacity:0.004" fill="#e1953b" d="M 227.5,358.5 C 228.833,359.167 228.833,359.167 227.5,358.5 Z"/></g>
<g><path style="opacity:0.004" fill="#91642f" d="M 307.5,358.5 C 308.833,359.167 308.833,359.167 307.5,358.5 Z"/></g>
<g><path style="opacity:0.004" fill="#e3943e" d="M 225.5,359.5 C 226.833,360.167 226.833,360.167 225.5,359.5 Z"/></g>
<g><path style="opacity:0.008" fill="#f19c3d" d="M 187.5,360.5 C 188.833,361.167 188.833,361.167 187.5,360.5 Z"/></g>
<g><path style="opacity:0.012" fill="#e1953a" d="M 223.5,360.5 C 224.833,361.167 224.833,361.167 223.5,360.5 Z"/></g>
<g><path style="opacity:0.004" fill="#8b5e2b" d="M 307.5,362.5 C 308.833,363.167 308.833,363.167 307.5,362.5 Z"/></g>
<g><path style="opacity:0.004" fill="#e0943b" d="M 173.5,366.5 C 174.833,367.167 174.833,367.167 173.5,366.5 Z"/></g>
<g><path style="opacity:0.004" fill="#845a2b" d="M 307.5,366.5 C 308.833,367.167 308.833,367.167 307.5,366.5 Z"/></g>
<g><path style="opacity:0.008" fill="#e19139" d="M 177.5,367.5 C 178.833,368.167 178.833,368.167 177.5,367.5 Z"/></g>
<g><path style="opacity:0.004" fill="#de933a" d="M 182.5,367.5 C 183.833,368.167 183.833,368.167 182.5,367.5 Z"/></g>
<g><path style="opacity:0.004" fill="#dc913c" d="M 204.5,367.5 C 205.833,368.167 205.833,368.167 204.5,367.5 Z"/></g>
<g><path style="opacity:0.012" fill="#dc923b" d="M 206.5,367.5 C 207.833,368.167 207.833,368.167 206.5,367.5 Z"/></g>
<g><path style="opacity:0.012" fill="#dd913a" d="M 209.5,367.5 C 210.833,368.167 210.833,368.167 209.5,367.5 Z"/></g>
<g><path style="opacity:0.008" fill="#d88f3b" d="M 218.5,367.5 C 219.833,368.167 219.833,368.167 218.5,367.5 Z"/></g>
<g><path style="opacity:0.008" fill="#7a5327" d="M 307.5,374.5 C 308.833,375.167 308.833,375.167 307.5,374.5 Z"/></g>
<g><path style="opacity:0.004" fill="#6d4b23" d="M 307.5,382.5 C 308.833,383.167 308.833,383.167 307.5,382.5 Z"/></g>
<g><path style="opacity:0.008" fill="#644421" d="M 308.5,391.5 C 308.167,391.5 307.833,391.5 307.5,391.5C 307.833,388.833 308.167,388.833 308.5,391.5 Z"/></g>
</svg>
